<svg width="25" height="25" viewBox="0 0 25 25" xmlns="http://www.w3.org/2000/svg">
<path d="M15.9912 4.16016C15.7715 4.24316 15.625 4.45312 15.625 4.6875C15.625 4.92188 15.7715 5.13184 15.9912 5.21484L18.75 6.25L19.7852 9.00879C19.8682 9.22852 20.0781 9.375 20.3125 9.375C20.5469 9.375 20.7568 9.22852 20.8398 9.00879L21.875 6.25L24.6338 5.21484C24.8535 5.13184 25 4.92188 25 4.6875C25 4.45312 24.8535 4.24316 24.6338 4.16016L21.875 3.125L20.8398 0.366211C20.7568 0.146484 20.5469 0 20.3125 0C20.0781 0 19.8682 0.146484 19.7852 0.366211L18.75 3.125L15.9912 4.16016ZM10.0146 3.5791C9.8877 3.30078 9.60938 3.125 9.30664 3.125C9.00391 3.125 8.72559 3.30078 8.59863 3.5791L6.02051 9.14551L0.454102 11.7188C0.175781 11.8457 0 12.124 0 12.4316C0 12.7393 0.175781 13.0127 0.454102 13.1396L6.02539 15.7129L8.59375 21.2793C8.7207 21.5576 8.99902 21.7334 9.30176 21.7334C9.60449 21.7334 9.88281 21.5576 10.0098 21.2793L12.583 15.708L18.1543 13.1348C18.4326 13.0078 18.6084 12.7295 18.6084 12.4268C18.6084 12.124 18.4326 11.8457 18.1543 11.7188L12.5879 9.15039L10.0146 3.5791ZM18.75 18.75L15.9912 19.7852C15.7715 19.8682 15.625 20.0781 15.625 20.3125C15.625 20.5469 15.7715 20.7568 15.9912 20.8398L18.75 21.875L19.7852 24.6338C19.8682 24.8535 20.0781 25 20.3125 25C20.5469 25 20.7568 24.8535 20.8398 24.6338L21.875 21.875L24.6338 20.8398C24.8535 20.7568 25 20.5469 25 20.3125C25 20.0781 24.8535 19.8682 24.6338 19.7852L21.875 18.75L20.8398 15.9912C20.7568 15.7715 20.5469 15.625 20.3125 15.625C20.0781 15.625 19.8682 15.7715 19.7852 15.9912L18.75 18.75Z" />
</svg>
