<svg width="25" height="21" viewBox="0 0 25 21" xmlns="http://www.w3.org/2000/svg">
<path d="M1.95312 0C1.30371 0 0.78125 0.522461 0.78125 1.17188V3.51562C0.78125 4.16504 1.30371 4.6875 1.95312 4.6875H4.29688C4.94629 4.6875 5.46875 4.16504 5.46875 3.51562V1.17188C5.46875 0.522461 4.94629 0 4.29688 0H1.95312ZM9.375 0.78125C8.51074 0.78125 7.8125 1.47949 7.8125 2.34375C7.8125 3.20801 8.51074 3.90625 9.375 3.90625H23.4375C24.3018 3.90625 25 3.20801 25 2.34375C25 1.47949 24.3018 0.78125 23.4375 0.78125H9.375ZM9.375 8.59375C8.51074 8.59375 7.8125 9.29199 7.8125 10.1562C7.8125 11.0205 8.51074 11.7188 9.375 11.7188H23.4375C24.3018 11.7188 25 11.0205 25 10.1562C25 9.29199 24.3018 8.59375 23.4375 8.59375H9.375ZM9.375 16.4062C8.51074 16.4062 7.8125 17.1045 7.8125 17.9688C7.8125 18.833 8.51074 19.5312 9.375 19.5312H23.4375C24.3018 19.5312 25 18.833 25 17.9688C25 17.1045 24.3018 16.4062 23.4375 16.4062H9.375ZM0.78125 8.98438V11.3281C0.78125 11.9775 1.30371 12.5 1.95312 12.5H4.29688C4.94629 12.5 5.46875 11.9775 5.46875 11.3281V8.98438C5.46875 8.33496 4.94629 7.8125 4.29688 7.8125H1.95312C1.30371 7.8125 0.78125 8.33496 0.78125 8.98438ZM1.95312 15.625C1.30371 15.625 0.78125 16.1475 0.78125 16.7969V19.1406C0.78125 19.79 1.30371 20.3125 1.95312 20.3125H4.29688C4.94629 20.3125 5.46875 19.79 5.46875 19.1406V16.7969C5.46875 16.1475 4.94629 15.625 4.29688 15.625H1.95312Z" />
</svg>
