<svg width="20" height="20" viewBox="0 0 26 20" fill="none" xmlns="http://www.w3.org/2000/svg">
<path d="M23.898 10.4975C26.3007 8.09488 26.3007 4.20383 23.898 1.80116C21.7718 -0.325097 18.4208 -0.60151 15.9756 1.14627L15.9076 1.19305C15.2952 1.63106 15.1549 2.48156 15.5929 3.08967C16.0309 3.69778 16.8814 3.84236 17.4895 3.40436L17.5576 3.35758C18.9226 2.38375 20.7895 2.53684 21.9717 3.72329C23.3112 5.06283 23.3112 7.23162 21.9717 8.57116L17.2003 13.351C15.8608 14.6905 13.692 14.6905 12.3525 13.351C11.166 12.1645 11.0129 10.2977 11.9868 8.93687L12.0335 8.86883C12.4715 8.25647 12.327 7.40597 11.7189 6.97221C11.1107 6.53846 10.256 6.67879 9.82224 7.2869L9.77546 7.35494C8.02343 9.79588 8.29984 13.1469 10.4261 15.2731C12.8288 17.6758 16.7198 17.6758 19.1225 15.2731L23.898 10.4975ZM1.802 9.50246C-0.600667 11.9051 -0.600667 15.7962 1.802 18.1988C3.92826 20.3251 7.27924 20.6015 9.72443 18.8537L9.79247 18.8069C10.4048 18.3689 10.5452 17.5184 10.1072 16.9103C9.66915 16.3022 8.81864 16.1576 8.21054 16.5956L8.1425 16.6424C6.77744 17.6162 4.91059 17.4632 3.72839 16.2767C2.38885 14.9329 2.38885 12.7641 3.72839 11.4246L8.49971 6.64902C9.83925 5.30948 12.008 5.30948 13.3476 6.64902C14.534 7.83547 14.6871 9.70232 13.7133 11.0674L13.6665 11.1354C13.2285 11.7478 13.3731 12.5983 13.9812 13.032C14.5893 13.4658 15.4441 13.3255 15.8778 12.7174L15.9246 12.6493C17.6766 10.2041 17.4002 6.85314 15.274 4.72689C12.8713 2.32422 8.98024 2.32422 6.57757 4.72689L1.802 9.50246Z" />
</svg>
