<svg width="26" height="20" viewBox="0 0 26 20" fill="none" xmlns="http://www.w3.org/2000/svg">
<path d="M25.8417 1.42857C25.8417 6.5 21.653 10.692 16.2264 11.3393C15.8748 8.95536 14.7113 6.80357 12.9932 5.12054C14.8895 2.06696 18.5138 0 22.6729 0H24.2573C25.1337 0 25.8417 0.638393 25.8417 1.42857ZM0.491211 4.28571C0.491211 3.49554 1.19924 2.85714 2.07562 2.85714H3.66003C9.78475 2.85714 14.7509 7.33482 14.7509 12.8571V14.2857V18.5714C14.7509 19.3616 14.0428 20 13.1665 20C12.2901 20 11.5821 19.3616 11.5821 18.5714V14.2857C5.45734 14.2857 0.491211 9.80804 0.491211 4.28571Z" />
</svg>
