<svg width="26" height="20" viewBox="0 0 26 20" fill="none" xmlns="http://www.w3.org/2000/svg">
<path d="M12.0253 0C10.4857 0 9.23391 1.12109 9.23391 2.5V17.5C9.23391 18.8789 10.4857 20 12.0253 20H23.1907C24.7303 20 25.982 18.8789 25.982 17.5V2.5C25.982 1.12109 24.7303 0 23.1907 0H12.0253ZM5.04689 2.8125V17.1875C5.04689 17.707 5.51356 18.125 6.09364 18.125C6.67372 18.125 7.1404 17.707 7.1404 17.1875V2.8125C7.1404 2.29297 6.67372 1.875 6.09364 1.875C5.51356 1.875 5.04689 2.29297 5.04689 2.8125ZM0.859863 4.6875V15.3125C0.859863 15.832 1.32654 16.25 1.90662 16.25C2.4867 16.25 2.95337 15.832 2.95337 15.3125V4.6875C2.95337 4.16797 2.4867 3.75 1.90662 3.75C1.32654 3.75 0.859863 4.16797 0.859863 4.6875Z" />
</svg>
