<svg width="31" height="30" viewBox="0 0 31 30" xmlns="http://www.w3.org/2000/svg">
<path d="M0 30C0 19.9922 0 10.0017 0 0C10.0024 0 19.9929 0 30 0C30 7.26367 30 14.5256 30 21.7858C28.7681 21.4331 28.8412 21.4363 27.6051 21.7731C27.6051 15.3221 27.6051 8.87854 27.6051 2.42178C19.1995 2.42178 10.822 2.42178 2.42614 2.42178C2.42614 10.8014 2.42614 19.1844 2.42614 27.5826C10.8074 27.5826 19.1905 27.5826 27.5918 27.5826C27.5918 27.2853 27.5918 26.9954 27.5918 26.6587C28.4112 27.0135 29.2076 26.9992 30.008 26.6426C30.008 27.7744 30.008 28.8786 30.008 30C20.0089 30 10.0127 30 0 30Z"/>
<path d="M25.1698 25.9738C23.4016 25.9738 21.6657 25.9738 19.9273 25.9738C19.9183 25.9425 19.9074 25.9211 19.9066 25.8993C19.8865 25.3754 19.8847 25.3689 20.3932 25.2094C20.7762 25.0892 21.1653 24.9886 21.5725 24.8733C21.1111 23.633 20.6503 22.3944 20.186 21.1463C19.6558 21.1463 19.1346 21.1463 18.6134 21.1463C17.5699 21.1463 16.5264 21.1435 15.483 21.1518C15.4042 21.1524 15.2781 21.2137 15.2547 21.2767C14.8135 22.4674 14.3844 23.6626 13.9474 24.8718C14.2768 24.9519 14.5953 25.0273 14.9125 25.1077C15.0194 25.1348 15.1233 25.1739 15.228 25.2093C15.7554 25.3876 15.7553 25.3878 15.6747 25.9719C14.1711 25.9719 12.6658 25.9719 11.1562 25.9719C11.1486 25.9434 11.1383 25.9219 11.1377 25.9001C11.122 25.3658 11.1209 25.362 11.6344 25.1815C11.8872 25.0926 12.143 25.0077 12.4034 24.9459C12.5614 24.9084 12.6372 24.8297 12.6937 24.682C14.356 20.3424 16.0224 16.0043 17.6899 11.6666C17.7282 11.5671 17.7726 11.4089 17.8404 11.3935C18.013 11.3543 18.2021 11.3677 18.381 11.3898C18.4253 11.3953 18.464 11.5107 18.4911 11.5811C19.3112 13.7083 20.1301 15.8361 20.9481 17.9642C21.8057 20.1955 22.6647 22.4263 23.5145 24.6606C23.5831 24.841 23.6819 24.9089 23.8626 24.9497C24.2154 25.0295 24.5608 25.1425 24.9077 25.247C25.1017 25.3055 25.2161 25.419 25.173 25.6459C25.1543 25.744 25.1698 25.8485 25.1698 25.9738ZM15.7399 20.041C17.0951 20.041 18.4496 20.041 19.8146 20.041C19.1582 18.0128 18.1613 16.1154 17.8498 14.0315C17.1485 16.0292 16.4444 18.0345 15.7399 20.041Z"/>
<path d="M30.7266 24.2796C30.7257 25.3534 29.8554 26.2218 28.7809 26.2209C27.7073 26.2201 26.8386 25.3496 26.8394 24.2752C26.8401 23.202 27.7111 22.3328 28.7852 22.3336C29.8584 22.3345 30.7274 23.2055 30.7266 24.2796Z"/>
</svg>
