<?xml version="1.0" encoding="utf-8"?>
<svg version="1.1" id="Layer_1" xmlns="http://www.w3.org/2000/svg" x="0px" y="0px" viewBox="0 0 1000 1000">
  <rect width="1000" height="1000" rx="100" ry="100" fill="#4C8CB8"/>
  <g transform="scale(1.25) translate(-170, -215)">
        <path fill="#ffffff" d="M789.7,824.042c-52.245,0-103.533,0-154.896,0c-0.266-0.925-0.587-1.557-0.612-2.201
            c-0.594-15.477-0.648-15.67,14.378-20.383c11.317-3.55,22.813-6.525,34.844-9.93c-13.633-36.647-27.248-73.243-40.966-110.119
            c-15.667,0-31.066,0-46.465,0c-30.831,0-61.663-0.081-92.492,0.163c-2.327,0.018-6.054,1.829-6.744,3.691
            c-13.037,35.179-25.713,70.492-38.626,106.221c9.733,2.367,19.143,4.593,28.516,6.97c3.158,0.801,6.228,1.955,9.32,3.001
            c15.584,5.269,15.582,5.275,13.198,22.531c-44.423,0-88.899,0-133.503,0c-0.224-0.84-0.528-1.476-0.547-2.121
            c-0.462-15.786-0.496-15.898,14.675-21.232c7.472-2.627,15.029-5.135,22.723-6.96c4.669-1.108,6.906-3.434,8.578-7.797
            c49.113-128.22,98.348-256.393,147.618-384.553c1.131-2.942,2.443-7.616,4.445-8.07c5.101-1.158,10.688-0.763,15.973-0.11
            c1.308,0.162,2.451,3.573,3.253,5.652c24.232,62.852,48.427,125.719,72.594,188.596c25.339,65.926,50.718,131.838,75.827,197.852
            c2.028,5.331,4.947,7.336,10.287,8.543c10.422,2.356,20.628,5.695,30.877,8.784c5.732,1.727,9.112,5.081,7.84,11.786
            C789.242,817.253,789.7,820.342,789.7,824.042z M511.084,648.753c40.039,0,80.061,0,120.389,0
            c-19.393-59.927-48.847-115.987-58.051-177.557C552.7,530.218,531.898,589.469,511.084,648.753z"/>
    </g>
</svg>