<svg viewBox="0 0 51 44" fill="none" xmlns="http://www.w3.org/2000/svg">
<path d="M19.5321 4.71441H14.5023C15.5874 7.54294 19.4149 13.2 26.044 13.2C32.6731 13.2 36.3033 7.54294 37.2898 4.71441H32.0357C31.9102 11.7334 19.5321 11.1467 19.5321 4.71441Z" />
<path d="M29.0023 4.71441C29.0023 7.92004 22.7875 7.62671 22.7875 4.71441H29.0023Z" />
<path fill-rule="evenodd" clip-rule="evenodd" d="M0 43.3749L50.902 44V5.8667C50.902 2.62665 48.252 5.95589e-05 44.9831 5.49599e-05L5.91884 0C2.64996 -4.59901e-06 0 2.62658 0 5.86665V43.3749ZM4.77206 26.7143V37.7143C4.77206 38.5786 5.48787 39.2857 6.36274 39.2857H44.5392C45.4141 39.2857 46.1299 38.5786 46.1299 37.7143L46.1321 26.7143H44.5392H4.77206ZM29.0023 4.71441H22.7875H19.5321H6.36274C5.48787 4.71441 4.77206 5.42155 4.77206 6.28583V22.1965H46.1299V6.28583C46.1299 5.42155 45.4141 4.71441 44.5392 4.71441H32.0357H29.0023Z" />
<path fill-rule="evenodd" clip-rule="evenodd" d="M4.77206 37.7143V26.7143H44.5392H46.1321L46.1299 37.7143C46.1299 38.5786 45.4141 39.2857 44.5392 39.2857H6.36274C5.48787 39.2857 4.77206 38.5786 4.77206 37.7143ZM26.34 34.32H10.951V33.1466H26.34V34.32ZM21.013 31.9733H26.34V30.8H21.013V31.9733ZM10.951 31.9733V30.8H20.4211V31.9733H10.951ZM21.013 30.2133H26.34V29.04H21.013V30.2133Z" />
<path d="M12.7266 29.6266C12.7266 29.9506 12.4617 30.2133 12.1348 30.2133C11.8079 30.2133 11.5429 29.9506 11.5429 29.6266C11.5429 29.3026 11.8079 29.04 12.1348 29.04C12.4617 29.04 12.7266 29.3026 12.7266 29.6266Z" />
<path d="M15.0942 29.6266C15.0942 29.9506 14.8292 30.2133 14.5023 30.2133C14.1754 30.2133 13.9104 29.9506 13.9104 29.6266C13.9104 29.3026 14.1754 29.04 14.5023 29.04C14.8292 29.04 15.0942 29.3026 15.0942 29.6266Z" />
<path d="M17.4617 29.6266C17.4617 29.9506 17.1967 30.2133 16.8698 30.2133C16.5429 30.2133 16.2779 29.9506 16.2779 29.6266C16.2779 29.3026 16.5429 29.04 16.8698 29.04C17.1967 29.04 17.4617 29.3026 17.4617 29.6266Z" />
<path d="M19.8292 29.6266C19.8292 29.9506 19.5642 30.2133 19.2374 30.2133C18.9105 30.2133 18.6455 29.9506 18.6455 29.6266C18.6455 29.3026 18.9105 29.04 19.2374 29.04C19.5642 29.04 19.8292 29.3026 19.8292 29.6266Z" />
</svg>
