<svg width="211" height="278" viewBox="0 0 211 278" fill="none" xmlns="http://www.w3.org/2000/svg">
<rect x="155" y="8.4704" width="23" height="23" rx="11.5" transform="rotate(-21.6094 155 8.4704)" />
<rect x="150" y="54.6873" width="16.7723" height="16.7723" rx="8.38613" transform="rotate(-21.6094 150 54.6873)" />
<rect x="185" y="43.0315" width="16.7979" height="16.7979" rx="8.39896" transform="rotate(-0.107558 185 43.0315)" />
<path d="M116.107 19.4875L136.407 25.6847L124.202 43.6876L122.255 46.5587L124.822 48.892L134.424 57.621L128.381 64.1895L126.928 65.7689L127.44 67.8529L133.158 91.1055L134.457 96.386L139.111 93.574L154.286 84.4057L169.274 104.723L173.109 109.921L176.053 104.172C177.861 100.644 180.816 98.0542 184.704 95.2896C185.589 94.6609 186.542 94.0116 187.536 93.3342C189.308 92.1264 191.212 90.8293 193.091 89.4002C196.353 97.5722 200.985 112.219 204.54 130.406C206.539 140.632 207.591 150.947 206.653 161.032C200.71 224.924 159.264 273.315 110.74 273.315C58.409 273.315 14.1416 227.969 5.65123 167.247C3.74577 153.619 5.24084 139.619 8.8909 126.088C16.9631 96.1649 28.781 74.3354 44.7545 57.7339C60.7312 41.1291 81.1069 29.5023 106.709 20.3619L107.876 19.9726L106.612 16.1779L107.877 19.9726C108.381 19.8046 108.898 19.6795 109.423 19.5987L108.816 15.6475L109.423 19.5987C111.911 19.216 114.544 19.0674 116.107 19.4875Z" stroke-width="8"/>
</svg>
