<?xml version="1.0" encoding="UTF-8" standalone="no"?>
<!DOCTYPE svg PUBLIC "-//W3C//DTD SVG 1.1//EN" "http://www.w3.org/Graphics/SVG/1.1/DTD/svg11.dtd">
<svg width="100%" height="100%" viewBox="0 0 211 278" version="1.1" xmlns="http://www.w3.org/2000/svg" xmlns:xlink="http://www.w3.org/1999/xlink" xml:space="preserve" xmlns:serif="http://www.serif.com/" style="fill-rule:evenodd;clip-rule:evenodd;">
    <g transform="matrix(0.929716,-0.368277,0.368277,0.929716,7.77455,57.6783)">
        <path d="M178,19.97C178,13.623 172.847,8.47 166.5,8.47C160.153,8.47 155,13.623 155,19.97C155,26.317 160.153,31.47 166.5,31.47C172.847,31.47 178,26.317 178,19.97Z" style=";"/>
    </g>
    <g transform="matrix(0.929716,-0.368277,0.368277,0.929716,-9.59749,59.0852)">
        <path d="M166.772,63.073C166.772,58.445 163.015,54.687 158.386,54.687L158.386,54.687C153.758,54.687 150,58.445 150,63.073L150,63.073C150,67.702 153.758,71.46 158.386,71.46L158.386,71.46C163.015,71.46 166.772,67.702 166.772,63.073L166.772,63.073Z" style=";"/>
    </g>
    <g transform="matrix(0.999998,-0.00187724,0.00187724,0.999998,-0.0804545,0.347365)">
        <path d="M201.798,51.43C201.798,46.795 198.034,43.032 193.399,43.032C188.763,43.032 185,46.795 185,51.43C185,56.066 188.763,59.829 193.399,59.829C198.034,59.829 201.798,56.066 201.798,51.43L201.798,51.43Z" style=";"/>
    </g>
    <path d="M116.107,19.488L136.407,25.685L124.202,43.688L122.255,46.559L124.822,48.892L134.424,57.621L128.381,64.189L126.928,65.769L127.44,67.853L133.158,91.106L134.457,96.386L139.111,93.574L154.286,84.406L169.274,104.723L173.109,109.921L176.053,104.172C177.861,100.644 180.816,98.054 184.704,95.29C185.589,94.661 186.542,94.012 187.536,93.334C189.308,92.126 191.212,90.829 193.091,89.4C196.353,97.572 200.985,112.219 204.54,130.406C206.539,140.632 207.591,150.947 206.653,161.032C200.71,224.924 159.264,273.315 110.74,273.315C58.409,273.315 14.142,227.969 5.651,167.247C3.746,153.619 5.667,139.727 8.891,126.088C18.552,85.216 85.949,6.048 116.107,19.488Z" style=";fill-rule:nonzero;;stroke-width:8px;"/>
</svg>
