<svg viewBox="0 0 80 51" fill="none" xmlns="http://www.w3.org/2000/svg">
<path d="M79.5 0.209966L79.463 1.71678C75.9949 1.81559 73.9092 3.66823 72.5762 6.69421C69.4908 13.833 59.8271 36.3364 53.4094 50.9846H51.7309L41.623 27.135C37.6119 34.9902 33.1935 43.1912 29.3799 50.9846C29.3428 51.0217 27.5286 50.9847 27.5286 50.9476C21.7403 37.3986 15.6681 23.9485 9.86744 10.3624C8.46048 7.06473 3.77058 1.71678 0.537025 1.75383C0.537025 1.37095 0.5 0.518739 0.5 0H20.4814V1.71678C18.1118 1.85264 13.9649 3.35945 15.1374 5.9408C17.8403 12.0792 27.9235 35.6201 30.6387 41.5856C32.49 37.9174 37.7723 28.0984 39.9321 23.9485C38.2166 20.4531 32.6998 7.41056 30.9473 4.18697C29.7501 1.9885 26.4919 1.79089 24.0605 1.75383V0.0370527L41.6476 0.0741054V1.69208C39.2533 1.76618 36.9454 2.65545 38.0191 4.91567C40.3517 9.85604 41.7957 13.3267 43.9556 17.8471C44.6467 16.5132 48.2382 9.27555 49.892 5.39736C50.9904 2.85307 49.4106 1.86499 45.128 1.76618C45.1651 1.32155 45.128 0.494037 45.1651 0.0864566C50.6448 0.0494038 58.8768 0.0494035 60.3578 0.0123507V1.69208C57.5809 1.79089 54.7053 3.273 53.1872 5.60732L45.8809 20.7743C46.6708 22.7628 53.6933 38.4114 54.4214 40.1282L69.5278 5.22445C68.4664 2.37138 65.0354 1.75383 63.7025 1.72913V0.0123507L79.4753 0.148211L79.5 0.209966Z" />
</svg>
