<svg viewBox="0 0 150 121" fill="none" xmlns="http://www.w3.org/2000/svg">
<path d="M14.9541 0.0948486C6.70598 0.0948486 0 6.84201 0 15.1408V60.2786C0 68.5774 6.70598 75.3245 14.9541 75.3245H22.4312V86.609C22.4312 88.0431 23.2256 89.3361 24.4874 89.9708C25.7491 90.6056 27.2679 90.4645 28.4128 89.6182L47.3625 75.3245H82.2476C90.4957 75.3245 97.2017 68.5774 97.2017 60.2786V15.1408C97.2017 6.84201 90.4957 0.0948486 82.2476 0.0948486H14.9541ZM82.2476 82.8475H59.8164V90.3705C59.8164 98.6693 66.5224 105.416 74.7705 105.416H102.179L121.128 119.71C122.25 120.556 123.769 120.697 125.054 120.063C126.339 119.428 127.11 118.135 127.11 116.701V105.416H134.587C142.835 105.416 149.541 98.6693 149.541 90.3705V45.2327C149.541 36.9339 142.835 30.1867 134.587 30.1867H104.679V60.2786C104.679 72.7385 94.6315 82.8475 82.2476 82.8475Z" />
</svg>
