<svg width="228" height="668" viewBox="0 0 228 668" fill="none" xmlns="http://www.w3.org/2000/svg">
<g opacity="0.9">
<path d="M204.07 258.318C204.069 258.339 204.049 258.353 204.029 258.347L201.916 259.603L155.343 287.277L116.66 309.875V302.114C118.103 303.829 118.912 303.523 120.354 302.114C121.919 298.651 123.586 295.492 124.785 296.063C126.313 294.509 128.585 293.253 130.993 293.415C133.006 293.551 135.198 293.399 136.236 291.671C137.367 289.788 138.495 287.889 139.288 288.01C140.468 288.189 141.585 287.277 143.579 287.277C145.241 283.983 151.025 280.539 155.343 282.153C155.729 281.943 156.073 281.738 156.379 281.538C160.557 278.81 160.146 273.733 163.931 273.733C164.819 271.229 167.841 273.733 167.841 273.733C169.832 271.874 168.838 268.999 172.953 269.967C173.749 268.806 175.261 268.468 176.722 268.458C178.641 268.445 180.471 268.999 180.471 268.999L180.395 268.44C180.327 267.21 180.786 265.548 181.615 264.804C182.362 264.134 184.697 263.314 185.067 262.381C186.266 259.361 189.121 256.463 192.589 255.796L192.237 252.548L191.599 246.645V239.949L191.114 232.405C191.093 232.067 191.198 231.733 191.41 231.468C191.69 231.119 191.78 230.655 191.652 230.227L191.447 229.546C191.215 228.775 191.316 227.922 191.823 227.296C192.916 225.947 193.508 226.2 194.157 228.231C194.178 228.295 194.188 228.363 194.188 228.43C194.188 229.008 194.879 229.304 195.38 229.014C195.845 228.745 196.234 228.669 196.619 228.766C197.221 228.916 197.894 228.98 198.347 228.556L198.692 228.234C199.25 227.713 200.142 227.551 200.644 228.127C201.234 228.807 201.187 229.583 200.919 230.638C200.772 231.218 200.328 231.676 199.764 231.877C199.191 232.081 198.758 232.554 198.576 233.135C197.881 235.351 197.374 235.737 196.519 235.753C196.157 235.791 194.783 236.318 194.756 236.681L194.714 237.254C194.709 237.327 194.727 237.401 194.763 237.465C195.693 239.086 195.585 239.859 195.483 241.24C195.171 244.709 199.836 248.581 202.573 251.178C204.202 252.725 204.229 255.276 204.112 257.52L204.07 258.318Z" fill="white"/>
<path d="M192.589 255.796C189.121 256.463 186.266 259.361 185.067 262.381C184.697 263.314 182.362 264.134 181.615 264.804C180.786 265.548 180.327 267.21 180.395 268.44L176.722 241.24L192.237 252.548L192.589 255.796Z" fill="#D9D9D9"/>
<path d="M192.589 255.796C189.121 256.463 186.266 259.361 185.067 262.381C184.697 263.314 182.362 264.134 181.615 264.804C180.786 265.548 180.327 267.21 180.395 268.44L176.722 241.24L192.237 252.548L192.589 255.796Z" fill="#265F85" fill-opacity="0.25"/>
<path d="M204.029 258.347L204.05 262.355C204.061 264.472 202.955 266.439 201.139 267.53L116.66 318.267V316.007V309.875L155.343 287.277L201.916 259.603L204.029 258.347Z" fill="white"/>
<path d="M227 600.81L116.919 667.25L116.66 318.267L185.523 276.909C189.293 274.644 194.137 277.071 194.581 281.446L227 600.81Z" fill="url(#paint0_linear_26_390)"/>
<path d="M163.931 127.051V129.237L176.722 241.24L180.395 268.44C180.406 268.64 180.431 268.828 180.471 268.999C180.471 268.999 178.641 268.445 176.722 268.458C175.261 268.468 173.749 268.806 172.953 269.967C168.838 268.999 169.832 271.874 167.841 273.733C167.841 273.733 164.819 271.229 163.931 273.733C160.146 273.733 160.557 278.81 156.379 281.538C156.073 281.738 155.729 281.943 155.343 282.153C151.025 280.539 145.241 283.983 143.579 287.277C141.585 287.277 140.468 288.189 139.288 288.01C138.495 287.889 137.367 289.788 136.236 291.671C135.198 293.399 133.006 293.551 130.993 293.415C128.585 293.253 126.313 294.509 124.785 296.063C123.586 295.492 121.919 298.651 120.354 302.114C118.912 303.523 118.103 303.829 116.66 302.114C116.66 232.275 116.66 193.12 116.66 123.282L139.288 111.647L161.022 101.367C161.613 101.431 162.064 101.926 162.073 102.52L162.086 103.417C162.104 104.614 163.08 105.575 164.277 105.575H164.544C165.636 105.575 166.521 106.461 166.521 107.553C166.521 108.14 166.26 108.698 165.807 109.073L165.179 109.596C165.042 109.709 164.87 109.771 164.692 109.771C164.272 109.771 163.931 110.112 163.931 110.532V115.48V124.669V127.051Z" fill="url(#paint1_linear_26_390)"/>
<path d="M161.022 99.8649V101.367L139.288 111.647L116.66 123.282L73.5103 104.061C72.5807 103.356 72.9856 102.276 74.0282 100.112C74.4647 96.4871 74.9678 96.9697 76.0999 100.112L76.8768 99.5421C77.2712 98.382 77.2843 97.7753 76.8768 93.7321L77.3948 92.7638C78.8114 88.5327 79.2043 88.9567 79.4665 92.7638V93.7321L79.9845 95.0232V98.0234L99.3249 88.7437V100.723L97.7982 100.112V104.061L118.919 113.032L133.794 105.896V102.099V95.0133V87.5713L152.495 95.6688L157.396 97.9282V95.6688V93.0866H157.914V91.4727C158.594 89.6562 159.707 89.2938 159.986 91.1499L159.468 93.0866C160.732 93.8997 160.72 94.4767 159.727 95.6688V97.9282H160.504V99.5421L161.022 99.8649Z" fill="url(#paint2_linear_26_390)"/>
<path fill-rule="evenodd" clip-rule="evenodd" d="M99.3391 71.347C99.3516 71.3432 99.3641 71.3394 99.3765 71.3358C99.3893 71.3321 99.4021 71.3285 99.4148 71.325C99.3897 71.3319 99.3645 71.3392 99.3391 71.347Z" fill="#D9D9D9"/>
<path d="M133.794 70.6355V76.0115V87.5713V95.0133V102.099L132.316 102.801V86.9142V70.3665L130.453 69.7543V85.9797V103.736L127.996 104.67V99.143V84.8486V69.3803C127.221 69.1599 126.016 68.7169 125.249 68.5556V83.1469V105.896L122.574 106.971V81.7855V68.1187C121.493 67.9937 120.403 67.9312 119.292 67.935L119.193 79.9864L118.956 108.58L115.945 107.375L116.448 80.0838L116.67 68.0642L112.603 68.7075V82.1258V106.037L109.944 104.973V83.1469V69.3803C108.95 69.6646 107.925 69.9928 106.862 70.3665C106.614 70.4537 106.364 70.5433 106.112 70.6355V85.1889V103.44L103.754 102.496L103.989 86.21L104.202 71.3656C104.054 71.4247 103.904 71.4847 103.754 71.5455C102.875 71.9017 102.201 71.6961 101.513 71.4859C100.886 71.2946 100.247 71.0996 99.4302 71.3208L99.4148 71.325C99.4021 71.3285 99.3893 71.3321 99.3765 71.3358C99.3641 71.3394 99.3516 71.3432 99.3391 71.347C99.3344 71.3484 99.3296 71.3498 99.3249 71.3513C99.1682 71.3997 99.005 71.4636 98.8341 71.5455C97.3512 70.4828 95.8282 72.3861 96.8919 67.935C109.895 65.3201 115.969 61.4049 136.902 67.935C136.604 70.3166 133.794 70.6355 133.794 70.6355Z" fill="url(#paint3_linear_26_390)"/>
<path d="M116.919 667.25L1 600.81L52.1824 280.048L116.66 318.267L116.919 667.25Z" fill="url(#paint4_linear_26_390)"/>
<path d="M72.7472 108.774C73.245 108.016 73.5103 107.128 73.5103 106.221V104.061L116.66 123.282V302.114C115.055 303.363 114.155 303.684 112.55 302.114L111.994 300.788C110.852 298.067 107.901 296.58 105.035 297.281L104.029 297.527L103.736 294.785C103.545 292.994 101.751 291.838 100.041 292.402L99.7928 292.036C100.12 290.255 99.0277 286.876 96.7294 288.508C96.1703 288.905 95.3666 288.854 95.1044 288.22C94.0594 285.695 93.6911 282.934 90.84 285.725C90.4129 286.143 89.7193 286.154 89.3972 285.65C87.5734 282.798 86.9631 278.39 83.0912 282.153C81.1824 279.246 75.3255 275.373 71.1801 274.759C68.6971 274.391 64.5965 274.384 62.5947 272.87C60.3543 271.175 56.9462 270.992 55.0571 268.913C54.8697 268.706 54.743 268.566 54.7061 268.522L59.6731 240.798L74.8148 119.93C74.9766 118.638 74.7142 117.33 74.0671 116.201L72.5999 113.64C71.7286 112.12 71.7855 110.239 72.7472 108.774Z" fill="url(#paint5_linear_26_390)"/>
<path fill-rule="evenodd" clip-rule="evenodd" d="M101.464 87.5488L101.421 101.562V87.5713L101.464 87.5488Z" fill="#D9D9D9"/>
<path fill-rule="evenodd" clip-rule="evenodd" d="M99.4148 71.325C99.3897 71.3319 99.3645 71.3392 99.3391 71.347L99.3249 71.3513C99.3422 71.3459 99.3594 71.3408 99.3765 71.3358C99.3893 71.3321 99.4021 71.3285 99.4148 71.325Z" fill="#D9D9D9"/>
<path d="M54.4817 268.249C52.8395 266.182 50.9321 267.555 49.3112 265.471C49.2121 265.343 49.1119 265.223 49.0103 265.113C47.6657 263.651 44.8925 263.305 42.9142 263.485C42.2164 263.548 41.4038 263.907 40.3525 264.649C39.992 264.904 39.491 264.849 39.2148 264.504C39.0412 264.288 38.9894 263.998 39.0325 263.724C39.3323 261.82 39.302 255.75 38.9359 249.998L59.6731 240.798L54.7061 268.522C54.6257 268.428 54.551 268.337 54.4817 268.249Z" fill="#265F85" fill-opacity="0.25"/>
<path d="M204.029 258.347L204.05 262.355C204.061 264.472 202.955 266.439 201.139 267.53L116.66 318.267M204.029 258.347V258.347C204.049 258.353 204.069 258.339 204.07 258.318L204.112 257.52C204.229 255.276 204.202 252.725 202.573 251.178C199.836 248.581 195.171 244.709 195.483 241.24C195.585 239.859 195.693 239.086 194.763 237.465C194.727 237.401 194.709 237.327 194.714 237.254L194.756 236.681C194.783 236.318 196.157 235.791 196.519 235.753V235.753C197.374 235.737 197.881 235.351 198.576 233.135C198.758 232.554 199.191 232.081 199.764 231.877V231.877C200.328 231.676 200.772 231.218 200.919 230.638C201.187 229.583 201.234 228.807 200.644 228.127C200.142 227.551 199.25 227.713 198.692 228.234L198.347 228.556C197.894 228.98 197.221 228.916 196.619 228.766C196.234 228.669 195.845 228.745 195.38 229.014C194.879 229.304 194.188 229.008 194.188 228.43V228.43C194.188 228.363 194.178 228.295 194.157 228.231C193.508 226.2 192.916 225.947 191.823 227.296C191.316 227.922 191.215 228.775 191.447 229.546L191.652 230.227C191.78 230.655 191.69 231.119 191.41 231.468V231.468C191.198 231.733 191.093 232.067 191.114 232.405L191.599 239.949V246.645L192.237 252.548M204.029 258.347L201.916 259.603L155.343 287.277L116.66 309.875M73.5103 104.061V106.221C73.5103 107.128 73.245 108.016 72.7472 108.774V108.774C71.7855 110.239 71.7286 112.12 72.5999 113.64L74.0671 116.201C74.7142 117.33 74.9766 118.638 74.8149 119.93L59.6731 240.798M73.5103 104.061C72.5807 103.356 72.9856 102.276 74.0282 100.112C74.4647 96.4871 74.9678 96.9697 76.0999 100.112L76.8768 99.5421C77.2712 98.382 77.2843 97.7753 76.8768 93.7321L77.3948 92.7638C78.8114 88.5327 79.2043 88.9567 79.4665 92.7638V93.7321L79.9845 95.0232V98.0234L99.3249 88.7437M73.5103 104.061L116.66 123.282M25.0838 257.379H24.0479V257.379C23.3328 257.379 22.7531 256.799 22.7531 256.084V255.292C22.7531 254.264 23.5023 253.389 24.5184 253.23L30.0851 252.363C31.8272 252.092 33.1117 250.591 33.1117 248.828V248.365C33.1117 248.137 33.0611 247.91 32.9594 247.706C32.086 245.952 31.2335 244.79 31.4266 242.897C31.4914 242.262 30.8985 238.205 30.522 237.689V237.689C30.3673 237.634 30.7132 235.43 30.522 235.43C29.3933 235.43 28.1968 235.463 27.5309 235.005C25.4904 233.6 25.7424 230.305 25.5123 227.838V227.838C25.4556 227.23 25.7777 226.78 26.1272 226.279C27.252 224.668 27.7345 224.154 28.0927 225.851C28.1674 226.205 28.29 226.55 28.4814 226.857L29.0402 227.753C29.5628 228.59 30.6831 228.814 31.4871 228.241V228.241C31.704 228.086 31.9544 227.973 32.2206 227.97C32.927 227.965 33.2689 228.315 33.441 228.973C33.8109 230.39 34.3185 231.768 34.865 233.126C35.2642 234.118 35.3444 235.164 35.3961 236.459C35.426 237.209 35.886 237.874 36.5795 238.162V238.162C36.8536 238.276 37.105 238.447 37.239 238.712C38.0562 240.327 38.6206 245.045 38.9359 249.998M25.0838 257.379V258.078C25.0838 258.664 25.3167 259.225 25.7312 259.638L26.0434 259.949C26.258 260.163 26.3786 260.454 26.3786 260.757V261.121C26.3786 261.55 26.7264 261.898 27.1555 261.898V261.898C27.5845 261.898 27.9323 262.245 27.9323 262.674V263.659C27.9323 264.179 28.1627 264.673 28.5614 265.008L31.4612 267.441C31.698 267.639 31.9497 267.819 32.2142 267.979L52.1824 280.048M25.0838 257.379L116.66 309.875M116.919 667.25L1 600.81L52.1824 280.048M116.919 667.25L227 600.81L194.581 281.446C194.137 277.071 189.293 274.644 185.523 276.909L116.66 318.267M116.919 667.25L116.66 318.267M116.66 318.267V316.007V309.875M116.66 318.267L52.1824 280.048M116.66 309.875V302.114M161.022 101.367V101.367C161.613 101.431 162.064 101.926 162.073 102.52L162.086 103.417C162.104 104.614 163.08 105.575 164.277 105.575H164.544C165.636 105.575 166.521 106.461 166.521 107.553V107.553C166.521 108.14 166.26 108.698 165.807 109.073L165.179 109.596C165.042 109.709 164.87 109.771 164.692 109.771V109.771C164.272 109.771 163.931 110.112 163.931 110.532V115.48V124.669V127.051V129.237L176.722 241.24M161.022 101.367V99.8649L160.504 99.5421V97.9282H159.727V95.6688C160.72 94.4767 160.732 93.8997 159.468 93.0866L159.986 91.1499C159.707 89.2938 158.594 89.6562 157.914 91.4727V93.0866H157.396V95.6688V97.9282L152.495 95.6688L133.794 87.5713M161.022 101.367L139.288 111.647L116.66 123.282M136.902 67.935C136.604 70.3166 133.794 70.6355 133.794 70.6355V76.0115V87.5713M136.902 67.935C115.969 61.4049 109.895 65.3201 96.8919 67.935M136.902 67.935L138.715 64.7972M138.715 62.5771L136.902 60.9632L133.794 59.0266L131.205 57.4127L122.4 50.9572V34.4957M138.715 62.5771C125.878 57.7352 117.836 56.2216 97.7982 61.6088M138.715 62.5771V64.7972M122.4 34.4957C123.286 27.1266 126.787 20.6634 122.4 17.3887C122.269 16.0359 122.084 15.3291 120.846 14.4837C120.846 9.9649 117.221 7.05993 116.444 14.4837V16.4204C116.444 16.4204 115.667 16.0976 115.926 16.4204C116.185 16.7432 115.926 17.3887 115.926 17.3887H115.149C113.858 16.8816 113.387 16.2584 112.559 15.1293L113.595 13.1926V15.1293L115.667 16.0976L115.926 2.21832M122.4 34.4957C121.41 35.0606 121.889 35.254 120.846 32.8819L121.623 30.2997C122.174 26.3939 122.435 24.2385 122.141 20.9392C121.745 22.6775 121.559 23.9107 121.429 25.928C121.39 26.5326 120.833 26.9782 120.236 26.8754C117.741 26.4458 116.144 25.9966 116.185 21.262M115.926 2.21832C115.319 1.84017 114.979 1.62815 114.372 1.25M115.926 2.21832L114.372 1.25M114.372 1.25C114.372 3.39287 114.372 4.59429 114.372 6.73716M114.372 1.25V6.73716M114.372 6.73716H113.595V9.31935C112.111 11.1209 111.461 12.3603 110.747 15.1293C111.11 19.0621 112.311 20.0496 114.372 21.9075V34.4957L115.149 36.1096V47.0839L114.372 48.6978H113.336V50.9572L105.049 57.0899H101.942L100.906 59.3493H98.8341L97.7982 61.6088M97.7982 61.6088H95.9855V66.1276M95.9855 66.1276L96.8919 67.935M95.9855 66.1276C111.962 59.6536 122.734 60.9016 138.715 64.7972M96.8919 67.935C95.8282 72.3861 97.3512 70.4828 98.8341 71.5455M98.8341 71.5455C99.005 71.4636 99.1682 71.3997 99.3249 71.3513M98.8341 71.5455C99.0102 71.4611 99.1781 71.3959 99.3391 71.347M104.202 71.3656L103.754 102.496M104.202 71.3656C104.054 71.4247 103.904 71.4847 103.754 71.5455M104.202 71.3656L104.206 71.3642M104.202 71.3656L103.989 86.21M103.754 71.5455C103.906 71.4843 104.056 71.4238 104.206 71.3642M103.754 71.5455C102.875 71.9017 102.201 71.6961 101.513 71.4859M103.989 86.21L103.754 102.496M103.989 86.21L101.464 87.5488M125.249 68.5556C126.016 68.7168 127.221 69.1599 127.996 69.3803M125.249 68.5556V105.896M125.249 68.5556V83.1469M119.292 67.935C120.403 67.9312 121.493 67.9937 122.574 68.1187M119.292 67.935C119.159 84.0067 119.08 93.6348 118.956 108.58M119.292 67.935L118.956 108.58M119.292 67.935L119.193 79.9864M118.919 113.032L133.794 105.896V102.099M118.919 113.032L97.7982 104.061V100.112M118.919 113.032C118.932 111.492 118.944 110.012 118.956 108.58M118.919 113.032L118.956 108.58M180.471 268.999C180.471 268.999 178.641 268.445 176.722 268.458C175.261 268.468 173.749 268.806 172.953 269.967C168.838 268.999 169.832 271.874 167.841 273.733C167.841 273.733 164.819 271.229 163.931 273.733C160.146 273.733 160.557 278.81 156.379 281.538C156.073 281.738 155.729 281.943 155.343 282.153C151.025 280.539 145.241 283.983 143.579 287.277C141.585 287.277 140.468 288.189 139.288 288.01C138.495 287.889 137.367 289.788 136.236 291.671C135.198 293.399 133.006 293.551 130.993 293.415C128.585 293.253 126.313 294.509 124.785 296.063C123.586 295.492 121.919 298.651 120.354 302.114C118.912 303.523 118.103 303.829 116.66 302.114M180.471 268.999L180.395 268.44M180.471 268.999C180.431 268.828 180.406 268.64 180.395 268.44M116.66 123.282C116.66 193.12 116.66 232.275 116.66 302.114M116.66 123.282V302.114M133.794 87.5713V95.0133V102.099M103.754 102.496L106.112 103.44M103.754 102.496L101.421 101.562M106.112 103.44V70.6355M106.112 103.44L109.944 104.973M106.112 103.44V85.1889M106.112 70.6355C106.364 70.5433 106.614 70.4537 106.862 70.3665C107.925 69.9928 108.95 69.6646 109.944 69.3803M106.112 70.6355C105.49 70.8631 104.855 71.1059 104.206 71.3642M106.112 70.6355V85.1889M116.67 68.0642L115.945 107.375M116.67 68.0642L112.603 68.7075M116.67 68.0642L116.448 80.0838M115.945 107.375L112.603 106.037M115.945 107.375L116.448 80.0838M115.945 107.375L118.956 108.58M127.996 69.3803V99.143M127.996 69.3803V84.8486M127.996 99.143V104.67M127.996 99.143V84.8486M109.944 69.3803V104.973M109.944 69.3803V83.1469M109.944 104.973V83.1469M109.944 104.973L112.603 106.037M112.603 68.7075V106.037M112.603 68.7075V82.1258M112.603 106.037V82.1258M122.574 68.1187V106.971M122.574 68.1187V81.7855M97.7982 100.112L118.956 108.58M97.7982 100.112L99.3249 100.723M118.956 108.58L122.574 106.971M118.956 108.58L119.193 79.9864M130.453 103.736L127.996 104.67M130.453 103.736L132.316 102.801M130.453 103.736V85.9797M127.996 104.67L125.249 105.896M125.249 105.896L122.574 106.971M125.249 105.896V83.1469M122.574 106.971V81.7855M99.3249 100.723V88.7437M99.3249 100.723L101.421 101.562M99.3249 71.3513V88.7437M99.3249 71.3513L99.3391 71.347M99.3249 71.3513C99.3422 71.3459 99.3594 71.3408 99.3765 71.3358M99.3249 71.3513C99.3296 71.3498 99.3344 71.3484 99.3391 71.347M101.421 101.562V87.5713L101.464 87.5488M101.421 101.562L101.464 87.5488M101.513 71.4859C100.886 71.2946 100.247 71.0996 99.4302 71.3208M101.513 71.4859L101.464 87.5488M109.944 83.1469L106.112 85.1889M116.448 80.0838L112.603 82.1258M119.193 79.9864L122.574 81.7855M125.249 83.1469L127.996 84.8486M54.7061 268.522C54.743 268.566 54.8697 268.706 55.0571 268.913C56.9462 270.992 60.3543 271.175 62.5947 272.87V272.87C64.5965 274.384 68.6971 274.391 71.1801 274.759C75.3255 275.373 81.1824 279.246 83.0912 282.153C86.9631 278.39 87.5734 282.798 89.3972 285.65C89.7193 286.153 90.4129 286.143 90.84 285.725C93.6911 282.934 94.0594 285.695 95.1044 288.22C95.3666 288.854 96.1703 288.905 96.7294 288.508C99.0277 286.876 100.12 290.255 99.7928 292.036L100.041 292.402V292.402C101.751 291.838 103.545 292.994 103.736 294.785L104.029 297.527L105.035 297.281C107.901 296.58 110.852 298.067 111.994 300.788L112.55 302.114C114.155 303.684 115.055 303.363 116.66 302.114M54.7061 268.522C54.6257 268.428 54.551 268.337 54.4817 268.249C52.8395 266.182 50.9321 267.555 49.3112 265.471C49.2121 265.343 49.1119 265.223 49.0103 265.113C47.6657 263.651 44.8925 263.305 42.9142 263.485C42.2164 263.548 41.4038 263.907 40.3525 264.649C39.992 264.904 39.491 264.849 39.2148 264.504V264.504C39.0412 264.288 38.9894 263.998 39.0325 263.724C39.3323 261.82 39.302 255.75 38.9359 249.998M54.7061 268.522L59.6731 240.798M176.722 241.24L192.237 252.548M176.722 241.24L180.395 268.44M192.237 252.548L192.589 255.796C189.121 256.463 186.266 259.361 185.067 262.381C184.697 263.314 182.362 264.134 181.615 264.804C180.786 265.548 180.327 267.21 180.395 268.44M133.794 102.099L132.316 102.801M132.316 102.801V86.9142M99.4302 71.3208C99.4251 71.3222 99.4199 71.3236 99.4148 71.325M99.4302 71.3208L99.4148 71.325M132.316 86.9142V70.3665L130.453 69.7543V85.9797M132.316 86.9142L130.453 85.9797M38.9359 249.998L59.6731 240.798M99.3765 71.3358C99.3893 71.3321 99.4021 71.3285 99.4148 71.325M99.3765 71.3358C99.3641 71.3394 99.3516 71.3432 99.3391 71.347M99.4148 71.325C99.3897 71.3319 99.3645 71.3392 99.3391 71.347" stroke="#265F85"/>
</g>
<defs>
<linearGradient id="paint0_linear_26_390" x1="114.753" y1="202.487" x2="112.849" y2="667.245" gradientUnits="userSpaceOnUse">
<stop stop-color="white"/>
<stop offset="1" stop-color="#4C8CB8" stop-opacity="0"/>
</linearGradient>
<linearGradient id="paint1_linear_26_390" x1="114.753" y1="202.487" x2="112.849" y2="667.245" gradientUnits="userSpaceOnUse">
<stop stop-color="white"/>
<stop offset="1" stop-color="#4C8CB8" stop-opacity="0"/>
</linearGradient>
<linearGradient id="paint2_linear_26_390" x1="124.245" y1="73.8309" x2="154.049" y2="142.984" gradientUnits="userSpaceOnUse">
<stop stop-color="white"/>
</linearGradient>
<linearGradient id="paint3_linear_26_390" x1="117.415" y1="97.1939" x2="116.027" y2="152.95" gradientUnits="userSpaceOnUse">
<stop stop-color="white"/>
<stop offset="1" stop-color="#4C8CB8" stop-opacity="0"/>
</linearGradient>
<linearGradient id="paint4_linear_26_390" x1="114.753" y1="202.487" x2="112.849" y2="667.245" gradientUnits="userSpaceOnUse">
<stop stop-color="white"/>
<stop offset="1" stop-color="#4C8CB8" stop-opacity="0"/>
</linearGradient>
<linearGradient id="paint5_linear_26_390" x1="114.753" y1="202.487" x2="112.849" y2="667.245" gradientUnits="userSpaceOnUse">
<stop stop-color="white"/>
<stop offset="1" stop-color="#4C8CB8" stop-opacity="0"/>
</linearGradient>
</defs>
</svg>
