<svg width="217" height="150" viewBox="0 0 217 150" fill="none" xmlns="http://www.w3.org/2000/svg">
<g opacity="0.8" filter="url(#filter0_d_105_475)">
<path fill-rule="evenodd" clip-rule="evenodd" d="M157.76 119.453C197.171 106.317 205.306 71.8561 175.93 42.4822C146.553 13.1082 90.7894 -0.055338 51.378 13.0807C11.9666 26.2166 3.83171 60.6778 33.2083 90.0518C62.5848 119.426 118.348 132.589 157.76 119.453ZM162.71 124.403C205.789 110.044 214.681 72.3763 182.57 40.2687C150.46 8.16119 89.507 -6.22731 46.428 8.13112C3.34896 22.4895 -5.54292 60.1577 26.5674 92.2652C58.6778 124.373 119.631 138.761 162.71 124.403Z" fill="url(#paint0_linear_105_475)" shape-rendering="crispEdges"/>
<path fill-rule="evenodd" clip-rule="evenodd" d="M162.71 124.403C205.789 110.044 214.681 72.3763 182.57 40.2687C150.46 8.16119 89.507 -6.22731 46.428 8.13112C3.34896 22.4895 -5.54292 60.1577 26.5674 92.2652C58.6778 124.373 119.631 138.761 162.71 124.403ZM141.523 76.1934L133.253 78.9497C132.492 78.6073 131.681 78.1395 130.821 77.5462C129.969 76.922 129.138 76.2623 128.328 75.567C128.124 76.4297 127.789 77.2938 127.321 78.1592C126.882 79.0152 126.28 79.8406 125.513 80.6355C124.718 81.4399 123.766 82.1829 122.658 82.8646C121.549 83.5462 120.238 84.1394 118.724 84.644C116.268 85.4628 113.773 85.9393 111.242 86.0735C108.738 86.1982 106.343 86.0313 104.057 85.5728C101.763 85.1452 99.6126 84.4424 97.6065 83.4647C95.6075 82.4561 93.8842 81.228 92.4363 79.7803C90.5413 77.8855 89.3805 76.0582 88.9537 74.2986C88.5555 72.5294 88.8057 70.8563 89.7043 69.2794C90.6241 67.7238 92.1496 66.2786 94.2806 64.9438C96.4401 63.5996 99.1338 62.3895 102.362 61.3136L111.017 58.4288L108.302 55.7143C107.259 54.6711 106.065 53.8201 104.72 53.1611C103.376 52.5022 101.934 52.0318 100.395 51.7498C98.8778 51.4892 97.2738 51.4277 95.5833 51.5653C93.9214 51.6935 92.2477 52.0384 90.5624 52.6001C88.9913 53.1238 87.7264 53.7441 86.7676 54.4611C85.8374 55.1685 85.1887 55.9099 84.8215 56.6852C84.4542 57.4605 84.3685 58.2697 84.5642 59.1128C84.7672 59.9251 85.2307 60.6932 85.9546 61.4171L77.985 64.0734C76.7573 62.8078 75.9509 61.4301 75.5656 59.9405C75.2089 58.4414 75.3407 56.9355 75.9609 55.423C76.5739 53.9413 77.7106 52.5263 79.371 51.1781C81.06 49.8203 83.3471 48.6606 86.2322 47.699C88.8601 46.8231 91.5473 46.2539 94.2936 45.9914C97.0187 45.7076 99.6887 45.7687 102.304 46.1745C104.911 46.6112 107.41 47.3963 109.801 48.5298C112.191 49.6633 114.355 51.1988 116.293 53.1362L132.358 69.1995C133.507 70.3491 134.874 71.5257 136.459 72.7292C138.022 73.9114 139.54 74.8958 141.012 75.6825L141.523 76.1934ZM114.739 79.1169C113.197 79.631 111.691 79.9342 110.221 80.0265C108.752 80.1188 107.366 80.0273 106.062 79.7521C104.78 79.4982 103.577 79.076 102.453 78.4854C101.358 77.8854 100.384 77.1595 99.5327 76.3079C98.6385 75.4137 98.0543 74.544 97.7801 73.6986C97.5345 72.8437 97.5847 72.0179 97.9306 71.2213C98.4064 70.0976 99.4881 69.0274 101.176 68.0108C102.87 66.9634 105.089 65.9827 107.831 65.0687L115.201 62.6123L122.195 69.606C122.419 70.4397 122.451 71.3091 122.29 72.2144C122.108 73.0984 121.719 73.9661 121.123 74.8176C120.498 75.6786 119.664 76.4818 118.62 77.2274C117.575 77.9729 116.282 78.6027 114.739 79.1169Z" fill="url(#paint1_linear_105_475)" fill-opacity="0.2" shape-rendering="crispEdges"/>
<path fill-rule="evenodd" clip-rule="evenodd" d="M133.253 78.9497L141.523 76.1934L141.012 75.6825C139.54 74.8958 138.022 73.9114 136.459 72.7292C134.874 71.5257 133.507 70.3491 132.358 69.1995L116.293 53.1362C114.355 51.1988 112.191 49.6633 109.801 48.5298C107.41 47.3963 104.911 46.6112 102.304 46.1745C99.6887 45.7687 97.0187 45.7076 94.2936 45.9914C91.5473 46.2539 88.8601 46.8231 86.2322 47.699C83.3471 48.6606 81.06 49.8203 79.371 51.1781C77.7106 52.5263 76.5739 53.9413 75.9609 55.423C75.3407 56.9355 75.2089 58.4414 75.5656 59.9405C75.9509 61.4301 76.7573 62.8078 77.985 64.0734L85.9546 61.4171C85.2307 60.6932 84.7672 59.9251 84.5642 59.1128C84.3685 58.2697 84.4542 57.4605 84.8215 56.6852C85.1887 55.9099 85.8374 55.1685 86.7676 54.4611C87.7264 53.7441 88.9913 53.1238 90.5624 52.6001C92.2477 52.0384 93.9214 51.6935 95.5833 51.5653C97.2738 51.4277 98.8778 51.4892 100.395 51.7498C101.934 52.0318 103.376 52.5022 104.72 53.1611C106.065 53.8201 107.259 54.6711 108.302 55.7143L111.017 58.4288L102.362 61.3136C99.1338 62.3895 96.4401 63.5996 94.2806 64.9438C92.1496 66.2786 90.6241 67.7238 89.7043 69.2794C88.8057 70.8563 88.5555 72.5294 88.9537 74.2986C89.3805 76.0582 90.5413 77.8855 92.4363 79.7803C93.8842 81.228 95.6075 82.4561 97.6065 83.4647C99.6126 84.4424 101.763 85.1452 104.057 85.5728C106.343 86.0313 108.738 86.1982 111.242 86.0735C113.773 85.9393 116.268 85.4628 118.724 84.644C120.238 84.1394 121.549 83.5462 122.658 82.8646C123.766 82.1829 124.718 81.4399 125.513 80.6355C126.28 79.8406 126.882 79.0152 127.321 78.1592C127.789 77.2938 128.124 76.4297 128.328 75.567C129.138 76.2623 129.969 76.922 130.821 77.5462C131.681 78.1395 132.492 78.6073 133.253 78.9497ZM110.221 80.0265C111.691 79.9342 113.197 79.631 114.739 79.1169C116.282 78.6027 117.575 77.9729 118.62 77.2274C119.664 76.4818 120.498 75.6786 121.123 74.8176C121.719 73.9661 122.108 73.0984 122.29 72.2144C122.451 71.3091 122.419 70.4397 122.195 69.606L115.201 62.6123L107.831 65.0687C105.089 65.9827 102.87 66.9634 101.176 68.0108C99.4881 69.0274 98.4064 70.0976 97.9306 71.2213C97.5847 72.0179 97.5345 72.8437 97.7801 73.6986C98.0543 74.544 98.6385 75.4137 99.5327 76.3079C100.384 77.1595 101.358 77.8854 102.453 78.4854C103.577 79.076 104.78 79.4982 106.062 79.7521C107.366 80.0273 108.752 80.1188 110.221 80.0265Z" fill="url(#paint2_linear_105_475)" fill-opacity="0.25" shape-rendering="crispEdges"/>
</g>
<defs>
<filter id="filter0_d_105_475" x="0.276794" y="0.566895" width="216.584" height="149.4" filterUnits="userSpaceOnUse" color-interpolation-filters="sRGB">
<feFlood flood-opacity="0" result="BackgroundImageFix"/>
<feColorMatrix in="SourceAlpha" type="matrix" values="0 0 0 0 0 0 0 0 0 0 0 0 0 0 0 0 0 0 127 0" result="hardAlpha"/>
<feOffset dx="4" dy="9"/>
<feGaussianBlur stdDeviation="5.5"/>
<feComposite in2="hardAlpha" operator="out"/>
<feColorMatrix type="matrix" values="0 0 0 0 0 0 0 0 0 0 0 0 0 0 0 0 0 0 0.25 0"/>
<feBlend mode="normal" in2="BackgroundImageFix" result="effect1_dropShadow_105_475"/>
<feBlend mode="normal" in="SourceGraphic" in2="effect1_dropShadow_105_475" result="shape"/>
</filter>
<linearGradient id="paint0_linear_105_475" x1="27.3222" y1="19.001" x2="86.7028" y2="267.196" gradientUnits="userSpaceOnUse">
<stop stop-color="white" stop-opacity="0.08"/>
<stop offset="1" stop-color="white" stop-opacity="0"/>
</linearGradient>
<linearGradient id="paint1_linear_105_475" x1="104.569" y1="2.5669" x2="121.851" y2="142.664" gradientUnits="userSpaceOnUse">
<stop stop-color="#282828"/>
<stop offset="1" stop-color="white" stop-opacity="0"/>
</linearGradient>
<linearGradient id="paint2_linear_105_475" x1="86.5749" y1="47.5848" x2="105.601" y2="120.015" gradientUnits="userSpaceOnUse">
<stop stop-color="white"/>
<stop offset="1" stop-color="#6C6C6C" stop-opacity="0"/>
</linearGradient>
</defs>
</svg>
