<svg width="354" height="231" viewBox="0 0 354 231" fill="none" xmlns="http://www.w3.org/2000/svg">
<g opacity="0.15" filter="url(#filter0_d_105_446)">
<mask id="path-1-inside-1_105_446" fill="white">
<path d="M273.038 133.039C270.011 136.066 263.326 137.11 258.107 135.37C252.888 133.63 251.111 129.767 254.138 126.74C257.165 123.713 263.85 122.67 269.069 124.409C274.288 126.149 276.065 130.013 273.038 133.039Z"/>
<path fill-rule="evenodd" clip-rule="evenodd" d="M4.00003 127.4L131.155 0.255859L349.448 73.014L222.293 200.158L4.00003 127.4ZM243.592 124.686C221.798 146.479 173.668 153.992 136.091 141.467C98.5134 128.942 85.7188 101.123 107.513 79.3306C129.307 57.5383 177.437 50.0254 215.014 62.55C250.069 74.2337 263.556 99.2274 247.517 120.222C246.545 121.55 245.421 122.858 244.14 124.138C244.09 124.188 244.041 124.237 243.991 124.286C243.959 124.317 243.928 124.348 243.896 124.379L243.887 124.389L243.886 124.39L243.877 124.399L243.79 124.487C243.725 124.553 243.658 124.62 243.592 124.686ZM258.107 135.37C263.326 137.11 270.011 136.066 273.038 133.039C276.065 130.013 274.288 126.149 269.069 124.409C263.85 122.67 257.165 123.713 254.138 126.74C251.111 129.767 252.888 133.63 258.107 135.37Z"/>
<path d="M166.651 98.3107C154.24 110.72 161.526 126.562 182.924 133.694C204.171 140.776 231.345 136.608 243.877 124.399L243.886 124.39L243.887 124.389L243.896 124.379C244.648 123.612 245.354 122.838 246.014 122.057C255.704 110.008 248.085 95.494 227.867 88.7551C206.469 81.623 179.061 85.9012 166.651 98.3107Z"/>
<path fill-rule="evenodd" clip-rule="evenodd" d="M248.891 118.164C248.054 119.477 247.096 120.776 246.014 122.057C245.354 122.838 244.648 123.612 243.896 124.379C243.928 124.348 243.959 124.317 243.991 124.286C244.041 124.237 244.09 124.188 244.14 124.138C245.421 122.858 246.545 121.55 247.517 120.222C248.015 119.541 248.473 118.854 248.891 118.164ZM273.038 133.039C270.011 136.066 263.326 137.11 258.107 135.37C252.888 133.63 251.111 129.767 254.138 126.74C257.165 123.713 263.85 122.67 269.069 124.409C274.288 126.149 276.065 130.013 273.038 133.039Z"/>
<path d="M145.049 140.069C179.495 151.549 223.614 144.663 243.592 124.686C243.658 124.62 243.725 124.553 243.79 124.487L243.877 124.399C227.106 140.845 190.575 146.474 162.021 136.957C133.316 127.389 123.542 106.138 140.191 89.4916C156.839 72.8447 193.605 67.1056 222.31 76.673C247.674 85.1269 258.257 102.703 248.891 118.164C260.825 99.456 248.186 77.9907 217.396 67.728C182.95 56.2471 138.831 63.134 118.853 83.1102C98.8748 103.087 110.603 128.588 145.049 140.069Z"/>
</mask>
<path d="M273.038 133.039C270.011 136.066 263.326 137.11 258.107 135.37C252.888 133.63 251.111 129.767 254.138 126.74C257.165 123.713 263.85 122.67 269.069 124.409C274.288 126.149 276.065 130.013 273.038 133.039Z" fill="url(#paint0_linear_105_446)" shape-rendering="crispEdges"/>
<path fill-rule="evenodd" clip-rule="evenodd" d="M4.00003 127.4L131.155 0.255859L349.448 73.014L222.293 200.158L4.00003 127.4ZM243.592 124.686C221.798 146.479 173.668 153.992 136.091 141.467C98.5134 128.942 85.7188 101.123 107.513 79.3306C129.307 57.5383 177.437 50.0254 215.014 62.55C250.069 74.2337 263.556 99.2274 247.517 120.222C246.545 121.55 245.421 122.858 244.14 124.138C244.09 124.188 244.041 124.237 243.991 124.286C243.959 124.317 243.928 124.348 243.896 124.379L243.887 124.389L243.886 124.39L243.877 124.399L243.79 124.487C243.725 124.553 243.658 124.62 243.592 124.686ZM258.107 135.37C263.326 137.11 270.011 136.066 273.038 133.039C276.065 130.013 274.288 126.149 269.069 124.409C263.85 122.67 257.165 123.713 254.138 126.74C251.111 129.767 252.888 133.63 258.107 135.37Z" fill="white" fill-opacity="0.1" shape-rendering="crispEdges"/>
<path d="M166.651 98.3107C154.24 110.72 161.526 126.562 182.924 133.694C204.171 140.776 231.345 136.608 243.877 124.399L243.886 124.39L243.887 124.389L243.896 124.379C244.648 123.612 245.354 122.838 246.014 122.057C255.704 110.008 248.085 95.494 227.867 88.7551C206.469 81.623 179.061 85.9012 166.651 98.3107Z" fill="url(#paint1_linear_105_446)" shape-rendering="crispEdges"/>
<path fill-rule="evenodd" clip-rule="evenodd" d="M248.891 118.164C248.054 119.477 247.096 120.776 246.014 122.057C245.354 122.838 244.648 123.612 243.896 124.379C243.928 124.348 243.959 124.317 243.991 124.286C244.041 124.237 244.09 124.188 244.14 124.138C245.421 122.858 246.545 121.55 247.517 120.222C248.015 119.541 248.473 118.854 248.891 118.164ZM273.038 133.039C270.011 136.066 263.326 137.11 258.107 135.37C252.888 133.63 251.111 129.767 254.138 126.74C257.165 123.713 263.85 122.67 269.069 124.409C274.288 126.149 276.065 130.013 273.038 133.039Z" fill="#3A3A3A" shape-rendering="crispEdges"/>
<path d="M145.049 140.069C179.495 151.549 223.614 144.663 243.592 124.686C243.658 124.62 243.725 124.553 243.79 124.487L243.877 124.399C227.106 140.845 190.575 146.474 162.021 136.957C133.316 127.389 123.542 106.138 140.191 89.4916C156.839 72.8447 193.605 67.1056 222.31 76.673C247.674 85.1269 258.257 102.703 248.891 118.164C260.825 99.456 248.186 77.9907 217.396 67.728C182.95 56.2471 138.831 63.134 118.853 83.1102C98.8748 103.087 110.603 128.588 145.049 140.069Z" fill="url(#paint2_linear_105_446)" shape-rendering="crispEdges"/>
<path d="M246.014 122.057L247.037 122.29L245.005 121.805L246.014 122.057ZM247.517 120.222L248.566 120.422L246.479 120.007L247.517 120.222ZM243.79 124.487L244.744 124.798L244.744 124.798L243.79 124.487ZM243.991 124.286L244.933 124.609L244.934 124.609L243.991 124.286ZM272.089 132.723C269.608 135.205 263.745 136.306 258.814 134.663L257.4 136.077C262.908 137.913 270.414 136.928 273.987 133.356L272.089 132.723ZM258.814 134.663C253.884 133.02 252.605 129.538 255.087 127.056L253.189 126.424C249.617 129.996 251.892 134.241 257.4 136.077L258.814 134.663ZM255.087 127.056C257.568 124.575 263.431 123.473 268.362 125.116L269.776 123.702C264.268 121.866 256.762 122.852 253.189 126.424L255.087 127.056ZM268.362 125.116C273.292 126.76 274.571 130.242 272.089 132.723L273.987 133.356C277.559 129.783 275.284 125.538 269.776 123.702L268.362 125.116ZM244.991 121.823C244.448 122.498 243.848 123.165 243.191 123.822L245.089 124.454C245.8 123.743 246.449 123.021 247.037 122.29L244.991 121.823ZM245.005 121.805C244.362 122.567 243.674 123.323 242.94 124.07L244.853 124.688C245.623 123.902 246.346 123.108 247.023 122.308L245.005 121.805ZM246.468 120.022C245.525 121.31 244.434 122.579 243.191 123.822L245.089 124.454C246.407 123.136 247.565 121.789 248.566 120.422L246.468 120.022ZM246.479 120.007C245.43 121.38 244.251 122.736 242.941 124.07L244.852 124.688C246.223 123.293 247.456 121.874 248.554 120.437L246.479 120.007ZM242.941 124.07L242.931 124.08L244.842 124.698L244.852 124.688L242.941 124.07ZM242.922 124.089C242.893 124.118 242.865 124.147 242.837 124.175L244.744 124.798C244.773 124.768 244.803 124.738 244.832 124.709L242.922 124.089ZM242.837 124.175C242.772 124.24 242.708 124.305 242.643 124.37L244.541 125.003C244.609 124.934 244.677 124.866 244.744 124.798L242.837 124.175ZM244.851 124.689C244.853 124.688 244.851 124.689 244.849 124.691C244.846 124.694 244.842 124.699 244.835 124.705L242.957 124.053C242.939 124.071 242.925 124.086 242.922 124.089L244.851 124.689ZM242.922 124.089L242.836 124.176L244.745 124.797L244.831 124.71L242.922 124.089ZM243.191 123.822C243.144 123.87 243.096 123.917 243.048 123.964L244.934 124.609C244.985 124.557 245.037 124.506 245.089 124.454L243.191 123.822ZM243.048 123.964C243.018 123.994 242.988 124.024 242.957 124.053L244.835 124.705C244.868 124.673 244.901 124.641 244.933 124.609L243.048 123.964ZM244.832 124.708L244.842 124.699L242.93 124.081L242.921 124.09L244.832 124.708ZM244.845 124.695L244.846 124.695L242.928 124.083L242.927 124.084L244.845 124.695ZM244.815 124.726C244.834 124.707 244.849 124.691 244.85 124.69L242.921 124.089C242.919 124.092 242.921 124.09 242.923 124.088C242.926 124.085 242.931 124.08 242.938 124.073L244.815 124.726ZM4.00003 127.4L2.10264 126.767L0.688367 128.182L2.58575 128.814L4.00003 127.4ZM131.155 0.255859L132.569 -1.15829L130.672 -1.7907L129.258 -0.376547L131.155 0.255859ZM349.448 73.014L351.346 73.6464L352.76 72.2322L350.863 71.5998L349.448 73.014ZM222.293 200.158L220.879 201.572L222.776 202.204L224.191 200.79L222.293 200.158ZM246.014 122.057L243.967 121.59L248.031 122.559L246.014 122.057ZM243.877 124.399L245.758 125.047L242 123.746L243.877 124.399ZM247.517 120.222L245.419 119.822L249.592 120.652L247.517 120.222ZM5.89741 128.032L133.052 0.888265L129.258 -0.376547L2.10264 126.767L5.89741 128.032ZM129.741 1.67001L348.034 74.4281L350.863 71.5998L132.569 -1.15829L129.741 1.67001ZM347.551 72.3816L220.396 199.525L224.191 200.79L351.346 73.6464L347.551 72.3816ZM223.708 198.744L5.4143 125.986L2.58575 128.814L220.879 201.572L223.708 198.744ZM241.695 124.054C220.991 144.756 174.505 152.385 137.505 140.053L134.676 142.881C172.831 155.598 222.604 148.202 245.489 125.319L241.695 124.054ZM137.505 140.053C100.505 127.721 88.7069 100.665 109.41 79.963L105.616 78.6982C82.7306 101.581 96.5218 130.164 134.676 142.881L137.505 140.053ZM109.41 79.963C130.114 59.2614 176.6 51.6319 213.6 63.9641L216.429 61.1358C178.274 48.4188 128.501 55.8152 105.616 78.6982L109.41 79.963ZM241.695 124.054C222.807 142.939 180.332 149.943 146.463 138.654L143.635 141.483C178.658 153.156 224.42 146.386 245.489 125.319L241.695 124.054ZM146.463 138.654C112.595 127.366 101.863 102.628 120.75 83.7427L116.955 82.4778C95.8867 103.545 108.612 129.809 143.635 141.483L146.463 138.654ZM120.75 83.7427C139.637 64.8571 182.113 57.8537 215.982 69.1422L218.81 66.3139C183.787 54.6405 138.024 61.4109 116.955 82.4778L120.75 83.7427ZM163.435 135.543C135.308 126.168 126.531 105.68 142.088 90.124L138.293 88.8592C120.554 106.597 131.325 128.611 160.607 138.371L163.435 135.543ZM142.088 90.124C157.646 74.5678 192.768 68.7122 220.896 78.0872L223.724 75.2589C194.442 65.499 156.033 71.1216 138.293 88.8592L142.088 90.124ZM184.338 132.28C163.517 125.34 157.228 110.262 168.548 98.9431L164.753 97.6783C151.252 111.179 159.534 127.784 181.51 135.108L184.338 132.28ZM168.548 98.9431C179.868 87.6243 205.632 83.2296 226.452 90.1693L229.281 87.3409C207.306 80.0164 178.255 84.1781 164.753 97.6783L168.548 98.9431ZM246.732 117.854C245.936 119.102 245.025 120.337 243.997 121.554L248.031 122.559C249.166 121.215 250.172 119.851 251.051 118.474L246.732 117.854ZM248.061 122.523C258.568 109.459 250.079 94.2729 229.281 87.3409L226.452 90.1693C246.091 96.715 252.841 110.558 243.967 121.59L248.061 122.523ZM241.995 123.751C226.32 139.123 191.412 144.867 163.435 135.543L160.607 138.371C189.739 148.081 227.893 142.567 245.758 125.047L241.995 123.751ZM220.896 78.0872C245.685 86.3497 255.522 103.342 246.712 117.886L251.07 118.442C260.992 102.063 249.662 83.904 223.724 75.2589L220.896 78.0872ZM181.51 135.108C203.335 142.383 232.125 138.329 245.753 125.052L242 123.746C230.565 134.886 205.008 139.169 184.338 132.28L181.51 135.108ZM215.982 69.1422C246.197 79.2131 258.069 100.081 246.732 117.854L251.051 118.474C263.581 98.8311 250.176 76.7683 218.81 66.3139L215.982 69.1422ZM246.712 117.886C246.319 118.536 245.887 119.181 245.419 119.822L249.615 120.622C250.143 119.9 250.628 119.173 251.07 118.442L246.712 117.886ZM249.592 120.652C266.394 98.6596 252.062 73.0126 216.429 61.1358L213.6 63.9641C248.075 75.4549 260.719 99.7952 245.441 119.792L249.592 120.652Z" fill="white" fill-opacity="0.25" mask="url(#path-1-inside-1_105_446)"/>
</g>
<defs>
<filter id="filter0_d_105_446" x="0" y="0.255859" width="353.448" height="229.902" filterUnits="userSpaceOnUse" color-interpolation-filters="sRGB">
<feFlood flood-opacity="0" result="BackgroundImageFix"/>
<feColorMatrix in="SourceAlpha" type="matrix" values="0 0 0 0 0 0 0 0 0 0 0 0 0 0 0 0 0 0 127 0" result="hardAlpha"/>
<feOffset dy="26"/>
<feGaussianBlur stdDeviation="2"/>
<feComposite in2="hardAlpha" operator="out"/>
<feColorMatrix type="matrix" values="0 0 0 0 0 0 0 0 0 0 0 0 0 0 0 0 0 0 0.25 0"/>
<feBlend mode="normal" in2="BackgroundImageFix" result="effect1_dropShadow_105_446"/>
<feBlend mode="normal" in="SourceGraphic" in2="effect1_dropShadow_105_446" result="shape"/>
</filter>
<linearGradient id="paint0_linear_105_446" x1="201.153" y1="74.8101" x2="165.786" y2="181.267" gradientUnits="userSpaceOnUse">
<stop stop-color="white"/>
<stop offset="1" stop-color="#4C8CB8" stop-opacity="0"/>
</linearGradient>
<linearGradient id="paint1_linear_105_446" x1="201.153" y1="74.8101" x2="165.786" y2="181.267" gradientUnits="userSpaceOnUse">
<stop stop-color="white"/>
<stop offset="1" stop-color="#4C8CB8" stop-opacity="0"/>
</linearGradient>
<linearGradient id="paint2_linear_105_446" x1="201.153" y1="74.8101" x2="165.786" y2="181.267" gradientUnits="userSpaceOnUse">
<stop stop-color="white"/>
<stop offset="1" stop-color="#4C8CB8" stop-opacity="0"/>
</linearGradient>
</defs>
</svg>
