<svg width="494" height="299" viewBox="0 0 494 299" fill="none" xmlns="http://www.w3.org/2000/svg">
<g filter="url(#filter0_d_105_420)">
<path d="M34.9322 85.6166C34.9372 86.1713 27.4141 100.629 19.1418 103.386L39.4171 123.66C47.6894 120.903 55.2125 106.445 55.2075 105.89C55.1901 105.883 55.1855 105.877 55.1942 105.874C55.203 105.872 55.2074 105.877 55.2075 105.89C55.9392 106.203 79.275 110.375 86.7047 107.899L101.541 90.427L140.109 90.0987L161.532 70.4315L200.807 69.868L222.701 50.0439L264.327 48.6963L290.691 27.3823L332.318 26.0347L312.043 5.76118L270.416 7.10882L244.052 28.4227L202.425 29.7704L180.531 49.5944L141.257 50.1579L119.834 69.8252L81.2655 70.1534L66.4294 87.6251C58.9997 90.1015 35.6639 85.9291 34.9322 85.6166Z" fill="url(#paint0_linear_105_420)" fill-opacity="0.1" shape-rendering="crispEdges"/>
<path d="M55.2075 105.89C55.2125 106.445 47.6894 120.903 39.4171 123.66L59.6924 143.933C67.9647 141.176 75.4878 126.718 75.4828 126.164C75.4654 126.156 75.4608 126.151 75.4695 126.148C75.4783 126.145 75.4827 126.15 75.4828 126.164C76.2144 126.476 99.5503 130.648 106.98 128.172L121.816 110.7L160.384 110.372L181.808 90.705L221.082 90.1415L242.976 70.3174L284.602 68.9698L310.966 47.6558L352.593 46.3082L332.318 26.0347L290.691 27.3823L264.327 48.6963L222.701 50.0439L200.807 69.868L161.532 70.4315L140.109 90.0987L101.541 90.427L86.7047 107.899C79.275 110.375 55.9392 106.203 55.2075 105.89Z" fill="url(#paint1_linear_105_420)" fill-opacity="0.1" shape-rendering="crispEdges"/>
<path d="M116.033 166.711C116.038 167.265 108.515 181.723 100.243 184.48L120.518 204.754C128.79 201.997 136.314 187.539 136.309 186.984C136.291 186.977 136.287 186.971 136.295 186.969C136.304 186.966 136.309 186.971 136.309 186.984C137.04 187.297 160.376 191.469 167.806 188.993L182.642 171.521L221.21 171.193L242.634 151.526L281.908 150.962L303.802 131.138L345.428 129.79L371.792 108.476L413.419 107.129L393.144 86.8552L351.517 88.2029L325.153 109.517L283.526 110.864L261.632 130.688L222.358 131.252L200.935 150.919L162.367 151.247L147.531 168.719C140.101 171.196 116.765 167.023 116.033 166.711Z" fill="url(#paint2_linear_105_420)" fill-opacity="0.1" shape-rendering="crispEdges"/>
<path d="M75.4828 126.164C75.4878 126.718 67.9647 141.176 59.6924 143.933L79.9677 164.207C88.2399 161.45 95.7631 146.992 95.7581 146.437C95.7406 146.43 95.736 146.424 95.7448 146.421C95.7536 146.419 95.758 146.424 95.7581 146.437C96.4897 146.75 119.826 150.922 127.255 148.446L142.091 130.974L180.66 130.646L202.083 110.978L241.357 110.415L263.251 90.5909L304.878 89.2433L331.242 67.9294L372.868 66.5817L352.593 46.3082L310.966 47.6558L284.602 68.9698L242.976 70.3174L221.082 90.1415L181.808 90.705L160.384 110.372L121.816 110.7L106.98 128.172C99.5503 130.648 76.2144 126.476 75.4828 126.164Z" fill="url(#paint3_linear_105_420)" fill-opacity="0.1" shape-rendering="crispEdges"/>
<path d="M95.7581 146.437C95.7631 146.992 88.2399 161.45 79.9677 164.207L100.243 184.48C108.515 181.723 116.038 167.265 116.033 166.711C116.016 166.703 116.011 166.698 116.02 166.695C116.029 166.692 116.033 166.697 116.033 166.711C116.765 167.023 140.101 171.196 147.531 168.719L162.367 151.247L200.935 150.919L222.358 131.252L261.632 130.688L283.526 110.864L325.153 109.517L351.517 88.2029L393.144 86.8552L372.868 66.5817L331.242 67.9294L304.878 89.2433L263.251 90.5909L241.357 110.415L202.083 110.978L180.66 130.646L142.091 130.974L127.255 148.446C119.826 150.922 96.4897 146.75 95.7581 146.437Z" fill="url(#paint4_linear_105_420)" fill-opacity="0.1" shape-rendering="crispEdges"/>
<path d="M136.309 186.984C136.314 187.539 128.79 201.997 120.518 204.754L140.793 225.027C149.066 222.27 156.589 207.812 156.584 207.258C156.566 207.25 156.562 207.245 156.571 207.242C156.579 207.239 156.584 207.244 156.584 207.258C157.316 207.57 180.651 211.743 188.081 209.266L202.917 191.795L241.485 191.466L262.909 171.799L302.183 171.236L324.077 151.411L365.704 150.064L392.067 128.75L433.694 127.402L413.419 107.129L371.792 108.476L345.428 129.79L303.802 131.138L281.908 150.962L242.634 151.526L221.21 171.193L182.642 171.521L167.806 188.993C160.376 191.469 137.04 187.297 136.309 186.984Z" fill="url(#paint5_linear_105_420)" fill-opacity="0.1" shape-rendering="crispEdges"/>
<path d="M156.584 207.258C156.589 207.812 149.066 222.27 140.793 225.027L161.069 245.301C169.341 242.544 176.864 228.086 176.859 227.531C176.842 227.524 176.837 227.518 176.846 227.516C176.855 227.513 176.859 227.518 176.859 227.531C177.591 227.844 200.927 232.016 208.356 229.54L223.192 212.068L261.761 211.74L283.184 192.073L322.458 191.509L344.352 171.685L385.979 170.337L412.343 149.023L453.969 147.676L433.694 127.402L392.067 128.75L365.704 150.064L324.077 151.411L302.183 171.236L262.909 171.799L241.485 191.466L202.917 191.795L188.081 209.266C180.651 211.743 157.316 207.57 156.584 207.258Z" fill="url(#paint6_linear_105_420)" fill-opacity="0.1" shape-rendering="crispEdges"/>
<path d="M176.859 227.531C176.864 228.086 169.341 242.544 161.069 245.301L181.344 265.574C189.616 262.817 197.139 248.359 197.134 247.805C197.117 247.797 197.112 247.792 197.121 247.789C197.13 247.786 197.134 247.791 197.134 247.805C197.866 248.117 221.202 252.29 228.632 249.813L243.468 232.342L282.036 232.013L303.459 212.346L342.733 211.783L364.627 191.958L406.254 190.611L432.618 169.297L474.245 167.949L453.969 147.676L412.343 149.023L385.979 170.337L344.352 171.685L322.458 191.509L283.184 192.073L261.761 211.74L223.192 212.068L208.356 229.54C200.927 232.016 177.591 227.844 176.859 227.531Z" fill="url(#paint7_linear_105_420)" fill-opacity="0.1" shape-rendering="crispEdges"/>
</g>
<defs>
<filter id="filter0_d_105_420" x="0.141846" y="0.76123" width="493.103" height="297.813" filterUnits="userSpaceOnUse" color-interpolation-filters="sRGB">
<feFlood flood-opacity="0" result="BackgroundImageFix"/>
<feColorMatrix in="SourceAlpha" type="matrix" values="0 0 0 0 0 0 0 0 0 0 0 0 0 0 0 0 0 0 127 0" result="hardAlpha"/>
<feOffset dy="14"/>
<feGaussianBlur stdDeviation="9.5"/>
<feComposite in2="hardAlpha" operator="out"/>
<feColorMatrix type="matrix" values="0 0 0 0 0 0 0 0 0 0 0 0 0 0 0 0 0 0 0.08 0"/>
<feBlend mode="normal" in2="BackgroundImageFix" result="effect1_dropShadow_105_420"/>
<feBlend mode="normal" in="SourceGraphic" in2="effect1_dropShadow_105_420" result="shape"/>
</filter>
<linearGradient id="paint0_linear_105_420" x1="156.196" y1="45.1787" x2="173.346" y2="90.6595" gradientUnits="userSpaceOnUse">
<stop stop-color="white"/>
<stop offset="1" stop-opacity="0"/>
</linearGradient>
<linearGradient id="paint1_linear_105_420" x1="156.196" y1="45.1787" x2="190.888" y2="147.996" gradientUnits="userSpaceOnUse">
<stop stop-color="#CDDAE3"/>
<stop offset="1" stop-opacity="0"/>
</linearGradient>
<linearGradient id="paint2_linear_105_420" x1="250.5" y1="135.117" x2="278.007" y2="191.318" gradientUnits="userSpaceOnUse">
<stop stop-color="#F2F2F2"/>
<stop offset="1" stop-opacity="0"/>
</linearGradient>
<linearGradient id="paint3_linear_105_420" x1="201" y1="94.6172" x2="219.524" y2="139.943" gradientUnits="userSpaceOnUse">
<stop stop-color="#8B8B8B"/>
<stop offset="1" stop-opacity="0"/>
</linearGradient>
<linearGradient id="paint4_linear_105_420" x1="230" y1="108.617" x2="260.136" y2="182.628" gradientUnits="userSpaceOnUse">
<stop stop-color="#B7B7B7"/>
<stop offset="1" stop-opacity="0"/>
</linearGradient>
<linearGradient id="paint5_linear_105_420" x1="251.5" y1="150.617" x2="270.592" y2="201.627" gradientUnits="userSpaceOnUse">
<stop stop-color="white"/>
<stop offset="1" stop-opacity="0"/>
</linearGradient>
<linearGradient id="paint6_linear_105_420" x1="268.5" y1="178.117" x2="290.817" y2="243.733" gradientUnits="userSpaceOnUse">
<stop stop-color="#A3A3A3"/>
<stop offset="1" stop-opacity="0"/>
</linearGradient>
<linearGradient id="paint7_linear_105_420" x1="255.5" y1="199.617" x2="286.634" y2="271.625" gradientUnits="userSpaceOnUse">
<stop stop-color="#BFBFBF"/>
<stop offset="1" stop-opacity="0"/>
</linearGradient>
</defs>
</svg>
