<svg width="220" height="669" viewBox="0 0 220 669" fill="none" xmlns="http://www.w3.org/2000/svg">
<g opacity="0.9">
<path d="M203.841 258.568C203.84 258.589 203.82 258.603 203.8 258.597L201.687 259.853L155.115 287.527L116.431 310.125V302.364C117.874 304.079 118.683 303.773 120.126 302.364C121.69 298.901 123.357 295.742 124.557 296.313C126.084 294.759 128.356 293.503 130.765 293.665C132.777 293.801 134.969 293.649 136.008 291.921C137.139 290.038 138.267 288.139 139.059 288.26C140.239 288.439 141.357 287.527 143.351 287.527C145.013 284.233 150.796 280.789 155.115 282.403C155.501 282.193 155.844 281.988 156.151 281.788C160.328 279.06 159.918 273.983 163.703 273.983C164.591 271.479 167.613 273.983 167.613 273.983C169.603 272.124 168.61 269.249 172.724 270.217C173.521 269.056 175.033 268.718 176.493 268.708C178.412 268.695 180.242 269.249 180.242 269.249C180.174 268.021 180.608 266.204 181.414 265.308C182.084 264.562 184.468 263.564 184.838 262.631C186.038 259.611 188.892 256.713 192.36 256.046L192.009 252.798L191.37 246.895V240.199L190.886 232.655C190.864 232.317 190.97 231.983 191.182 231.718C191.462 231.369 191.552 230.905 191.423 230.477L191.218 229.796C190.986 229.025 191.087 228.172 191.594 227.546C192.688 226.197 193.28 226.45 193.929 228.481C193.949 228.545 193.96 228.613 193.96 228.68C193.96 229.258 194.651 229.554 195.151 229.264C195.616 228.995 196.005 228.919 196.391 229.016C196.992 229.166 197.665 229.23 198.118 228.806L198.463 228.484C199.021 227.963 199.914 227.801 200.415 228.377C201.006 229.057 200.959 229.833 200.691 230.888C200.543 231.468 200.1 231.926 199.535 232.127C198.962 232.331 198.529 232.804 198.347 233.385C197.652 235.601 197.145 235.987 196.29 236.003C195.928 236.041 194.554 236.568 194.528 236.931L194.486 237.504C194.48 237.577 194.498 237.651 194.535 237.715C195.465 239.336 195.356 240.109 195.254 241.49C194.942 244.959 199.608 248.831 202.344 251.428C203.974 252.975 204.001 255.526 203.883 257.77L203.841 258.568Z" fill="white"/>
<path d="M192.36 256.046C188.892 256.713 186.038 259.611 184.838 262.631C184.468 263.564 182.084 264.562 181.414 265.308C180.608 266.204 180.174 268.021 180.242 269.249L177 241.49L192.009 252.798L192.36 256.046Z" fill="#D9D9D9"/>
<path d="M192.36 256.046C188.892 256.713 186.038 259.611 184.838 262.631C184.468 263.564 182.084 264.562 181.414 265.308C180.608 266.204 180.174 268.021 180.242 269.249L177 241.49L192.009 252.798L192.36 256.046Z" fill="#CEDBE4"/>
<path d="M203.8 258.597L203.821 262.605C203.832 264.722 202.726 266.689 200.91 267.78L116.431 318.517V316.257V310.125L155.115 287.527L201.687 259.853L203.8 258.597Z" fill="white"/>
<path d="M219.229 601.06L116.69 667.5L116.431 318.517L181.396 279.5L219.229 601.06Z" fill="url(#paint0_linear_20_326)"/>
<path d="M163.703 127.301V129.487L177 241.49L180.242 269.249C180.253 269.448 180.203 269.078 180.242 269.249C180.242 269.249 178.412 268.695 176.493 268.708C175.033 268.718 173.521 269.056 172.724 270.217C168.61 269.249 169.603 272.124 167.613 273.983C167.613 273.983 164.591 271.479 163.703 273.983C159.918 273.983 160.328 279.06 156.151 281.788C155.844 281.988 155.501 282.193 155.115 282.403C150.796 280.789 145.013 284.233 143.351 287.527C141.357 287.527 140.239 288.439 139.059 288.26C138.267 288.139 137.139 290.038 136.008 291.921C134.969 293.649 132.777 293.801 130.765 293.665C128.356 293.503 126.084 294.759 124.557 296.313C123.357 295.742 121.69 298.901 120.126 302.364C118.683 303.773 117.874 304.079 116.431 302.364C116.431 232.525 116.431 193.37 116.431 123.532L139.059 111.897L160.793 101.617C161.385 101.681 161.836 102.176 161.845 102.77L161.858 103.667C161.876 104.864 162.851 105.825 164.048 105.825H164.315C165.407 105.825 166.292 106.711 166.292 107.803C166.292 108.39 166.031 108.948 165.579 109.323L164.95 109.846C164.813 109.959 164.641 110.021 164.464 110.021C164.043 110.021 163.703 110.362 163.703 110.782V115.73V124.919V127.301Z" fill="url(#paint1_linear_20_326)"/>
<path d="M160.793 100.115V101.617L139.059 111.897L116.431 123.532L73.2817 104.311C72.3521 103.606 72.757 102.526 73.7996 100.362C74.2361 96.7371 74.7392 97.2197 75.8714 100.362L76.6482 99.7921C77.0426 98.632 77.0557 98.0253 76.6482 93.9821L77.1662 93.0138C78.5828 88.7827 78.9757 89.2067 79.2379 93.0138V93.9821L79.7559 95.2732V98.2734L99.0963 88.9937V100.973L97.5696 100.362V104.311L118.69 113.282L134.5 106.146V101.812V95.2732V87.1642L152.266 95.9188L157.168 98.1782V95.9188V93.3366H157.686V91.7227C158.365 89.9062 159.479 89.5438 159.757 91.3999L159.239 93.3366C160.504 94.1497 160.491 94.7267 159.498 95.9188V98.1782H160.275V99.7921L160.793 100.115Z" fill="url(#paint2_linear_20_326)"/>
<path fill-rule="evenodd" clip-rule="evenodd" d="M99.1105 71.597C99.123 71.5932 99.1355 71.5894 99.1479 71.5858C99.1608 71.5821 99.1735 71.5785 99.1862 71.575C99.1611 71.5819 99.1359 71.5892 99.1105 71.597Z" fill="#D9D9D9"/>
<path d="M134.5 70.8855V75.5V87.1642V95.2732V101.812L132.087 103.051V86.2297V70.6165L130.225 70.0043V85.4389V103.986L127.767 104.92V99.393V84V69.6303C126.993 69.4099 125.788 68.9669 125.02 68.8056V82.4956V106.146L122.345 107.221V81.5V68.3687C121.264 68.2437 120.175 68.1812 119.064 68.185L118.966 80L118.727 108.83L115.716 107.625L116.22 80.3338L116.442 68.3142L112.375 68.9575V82.3758V106.287L109.716 105.223V83.3969V69.6303C108.722 69.9146 107.696 70.2428 106.633 70.6165C106.386 70.7037 106.136 70.7933 105.884 70.8855V85.4389V103.69L103.526 102.746L103.76 86.46L103.974 71.6156C103.825 71.6747 103.676 71.7347 103.526 71.7955C102.647 72.1517 101.973 71.9461 101.284 71.7359C100.658 71.5446 100.019 71.3496 99.2016 71.5708L99.1862 71.575C99.1735 71.5785 99.1608 71.5821 99.1479 71.5858C99.1355 71.5894 99.123 71.5932 99.1105 71.597C99.1058 71.5984 99.101 71.5998 99.0963 71.6013C98.9396 71.6497 98.7764 71.7136 98.6055 71.7955C97.1226 70.7328 95.5996 72.6361 96.6633 68.185C109.667 65.5701 116.567 61.7842 137.5 68.3142C137.202 70.6959 134.5 70.8855 134.5 70.8855Z" fill="url(#paint3_linear_20_326)"/>
<path d="M116.69 667.5L0.771408 601.06L51.9538 278.5L116.431 318.517L116.69 667.5Z" fill="url(#paint4_linear_20_326)"/>
<path d="M72.5186 109.024C73.0164 108.266 73.2817 107.378 73.2817 106.471V104.311L116.431 123.532V302.364C114.826 303.613 113.926 303.934 112.321 302.364L111.765 301.038C110.624 298.317 107.673 296.83 104.806 297.531L103.801 297.777L103.508 295.035C103.317 293.244 101.522 292.088 99.8126 292.652L99.5642 292.286C99.8916 290.505 98.7991 287.126 96.5008 288.758C95.9417 289.155 95.138 289.104 94.8759 288.47C93.8308 285.945 93.4625 283.184 90.6114 285.975C90.1843 286.393 89.4907 286.404 89.1686 285.9C87.3448 283.048 86.7345 278.64 82.8626 282.403C80.9538 279.496 75.097 275.623 70.9515 275.009C68.4685 274.641 64.3679 274.634 62.3661 273.12C60.1257 271.425 56.7176 271.242 54.8285 269.163C54.6411 268.956 54.5145 268.816 54.4775 268.772L59.4445 241.048L74.5863 120.18C74.748 118.888 74.4856 117.58 73.8385 116.451L72.3713 113.89C71.5 112.37 71.5569 110.489 72.5186 109.024Z" fill="url(#paint5_linear_20_326)"/>
<path fill-rule="evenodd" clip-rule="evenodd" d="M101.235 87.7988L101.193 101.812V87.8213L101.235 87.7988Z" fill="#D9D9D9"/>
<path fill-rule="evenodd" clip-rule="evenodd" d="M99.1862 71.575C99.1611 71.5819 99.1359 71.5892 99.1105 71.597L99.0963 71.6013C99.1136 71.5959 99.1308 71.5908 99.1479 71.5858C99.1608 71.5821 99.1735 71.5785 99.1862 71.575Z" fill="#D9D9D9"/>
<path d="M53.7745 267.833C52.584 265.963 50.9593 267.26 50.8021 265.048C50.6684 263.167 48.2257 263.2 46.3396 263.236C45.602 263.25 44.7416 263.604 43.5994 264.41C43.2389 264.665 42.738 264.61 42.4618 264.266C42.2882 264.049 42.2363 263.759 42.2795 263.485C42.5792 261.581 42.549 255.511 42.1829 249.759L59.4445 241.048L54.4775 268.772C54.1642 268.404 53.9381 268.09 53.7745 267.833Z" fill="#265F85" fill-opacity="0.25"/>
<path d="M203.8 258.597L203.821 262.605C203.832 264.722 202.726 266.689 200.91 267.78L116.431 318.517M203.8 258.597V258.597C203.82 258.603 203.84 258.589 203.841 258.568L203.883 257.77C204.001 255.526 203.974 252.975 202.344 251.428C199.608 248.831 194.942 244.959 195.254 241.49C195.356 240.109 195.465 239.336 194.535 237.715C194.498 237.651 194.48 237.577 194.486 237.504L194.528 236.931C194.554 236.568 195.928 236.041 196.29 236.003V236.003C197.145 235.987 197.652 235.601 198.347 233.385C198.529 232.804 198.962 232.331 199.535 232.127V232.127C200.1 231.926 200.543 231.468 200.691 230.888C200.959 229.833 201.006 229.057 200.415 228.377C199.914 227.801 199.021 227.963 198.463 228.484L198.118 228.806C197.665 229.23 196.992 229.166 196.391 229.016C196.005 228.919 195.616 228.995 195.151 229.264C194.651 229.554 193.96 229.258 193.96 228.68V228.68C193.96 228.613 193.949 228.545 193.929 228.481C193.28 226.45 192.688 226.197 191.594 227.546C191.087 228.172 190.986 229.025 191.218 229.796L191.423 230.477C191.552 230.905 191.462 231.369 191.182 231.718V231.718C190.97 231.983 190.864 232.317 190.886 232.655L191.37 240.199V246.895L192.009 252.798M203.8 258.597L201.687 259.853L155.115 287.527L116.431 310.125M73.2817 104.311V106.471C73.2817 107.378 73.0164 108.266 72.5186 109.024V109.024C71.5569 110.489 71.5 112.37 72.3713 113.89L73.8385 116.451C74.4856 117.58 74.748 118.888 74.5863 120.18L59.4445 241.048M73.2817 104.311C72.3521 103.606 72.757 102.526 73.7996 100.362C74.2361 96.7371 74.7392 97.2197 75.8714 100.362L76.6482 99.7921C77.0426 98.632 77.0557 98.0253 76.6482 93.9821L77.1662 93.0138C78.5828 88.7827 78.9757 89.2067 79.2379 93.0138V93.9821L79.7559 95.2732V98.2734L99.0963 88.9937M73.2817 104.311L116.431 123.532M28.3307 257.14H27.2948V257.14C26.5797 257.14 26 256.56 26 255.845V255.053C26 254.025 26.7493 253.15 27.7654 252.991L33.332 252.124C35.0741 251.853 36.3587 250.352 36.3587 248.589V248.126C36.3587 247.898 36.3081 247.671 36.2064 247.467C35.3329 245.713 34.4805 244.551 34.6736 242.658C34.7383 242.023 34.1454 237.966 33.769 237.45V237.45C33.6143 237.395 33.9602 235.191 33.769 235.191C32.6403 235.191 31.4437 235.224 30.7779 234.766C28.7374 233.361 28.9894 230.066 28.7593 227.599V227.599C28.7026 226.991 29.0247 226.541 29.3741 226.04C30.499 224.429 30.9815 223.915 31.3396 225.612C31.4143 225.966 31.5369 226.311 31.7283 226.618L32.2872 227.514C32.8098 228.351 33.9301 228.575 34.7341 228.002V228.002C34.9509 227.848 35.2013 227.734 35.4675 227.732C36.1739 227.726 36.5159 228.076 36.6879 228.734C37.0579 230.151 37.5655 231.529 38.1119 232.887C38.5111 233.879 38.5914 234.925 38.643 236.22C38.673 236.97 39.1329 237.635 39.8264 237.923V237.923C40.1005 238.037 40.352 238.208 40.486 238.473C41.3032 240.088 41.8676 244.806 42.1829 249.759M28.3307 257.14V257.839C28.3307 258.425 28.5637 258.986 28.9781 259.399L29.2903 259.71C29.5049 259.924 29.6255 260.215 29.6255 260.518V260.882C29.6255 261.311 29.9734 261.659 30.4024 261.659V261.659C30.8315 261.659 31.1793 262.006 31.1793 262.435V263.42C31.1793 263.94 31.4096 264.434 31.8084 264.769L35.0638 267.5L51.9538 278.5M28.3307 257.14L116.431 310.125M116.69 667.5L0.771408 601.06L51.9538 278.5M116.69 667.5L219.229 601.06L181.396 279.5L116.431 318.517M116.69 667.5L116.431 318.517M116.431 318.517V316.257V310.125M116.431 318.517L51.9538 278.5M116.431 310.125V302.364M160.793 101.617V101.617C161.385 101.681 161.836 102.176 161.845 102.77L161.858 103.667C161.876 104.864 162.851 105.825 164.048 105.825H164.315C165.407 105.825 166.292 106.711 166.292 107.803V107.803C166.292 108.39 166.031 108.948 165.579 109.323L164.95 109.846C164.813 109.959 164.641 110.021 164.464 110.021V110.021C164.043 110.021 163.703 110.362 163.703 110.782V115.73V124.919V127.301V129.487L177 241.49M160.793 101.617V100.115L160.275 99.7921V98.1782H159.498V95.9188C160.491 94.7267 160.504 94.1497 159.239 93.3366L159.757 91.3999C159.479 89.5438 158.365 89.9062 157.686 91.7227V93.3366H157.168V95.9188V98.1782L152.266 95.9188L134.5 87.1642M160.793 101.617L139.059 111.897L116.431 123.532M137.5 68.3142C137.202 70.6959 134.5 70.8855 134.5 70.8855V75.5V87.1642M137.5 68.3142C116.567 61.7842 109.667 65.5701 96.6633 68.185M137.5 68.3142L138.486 65.0472M138.486 62.8271L136.673 61.2132L133.566 59.2766L130.976 57.6627L122.171 51.2072V34.7457M138.486 62.8271C125.65 57.9852 117.607 56.4716 97.5696 61.8588M138.486 62.8271V65.0472M122.171 34.7457C123.058 27.3766 126.558 20.9134 122.171 17.6387C122.041 16.2859 121.856 15.5791 120.618 14.7337C120.618 10.2149 116.992 7.30993 116.215 14.7337V16.6704C116.215 16.6704 115.438 16.3476 115.697 16.6704C115.956 16.9932 115.697 17.6387 115.697 17.6387H114.92C113.63 17.1316 113.158 16.5084 112.331 15.3793L113.367 13.4426V15.3793L115.438 16.3476L115.697 2.46832M122.171 34.7457C121.182 35.3106 121.661 35.504 120.618 33.1319L121.394 30.5497C121.946 26.6439 122.207 24.4885 121.912 21.1892C121.516 22.9275 121.331 24.1607 121.2 26.178C121.161 26.7826 120.604 27.2282 120.007 27.1254C117.513 26.6958 115.915 26.2466 115.956 21.512M115.697 2.46832C115.09 2.09017 114.75 1.87815 114.143 1.5M115.697 2.46832L114.143 1.5M114.143 1.5C114.143 3.64287 114.143 4.84429 114.143 6.98716M114.143 1.5V6.98716M114.143 6.98716H113.367V9.56935C111.883 11.3709 111.233 12.6103 110.518 15.3793C110.882 19.3121 112.082 20.2996 114.143 22.1575V34.7457L114.92 36.3596V47.3339L114.143 48.9478H113.108V51.2072L104.821 57.3399H101.713L100.677 59.5993H98.6055L97.5696 61.8588M97.5696 61.8588H95.7569V66.3776M95.7569 66.3776L96.6633 68.185M95.7569 66.3776C111.733 59.9036 122.505 61.1516 138.486 65.0472M96.6633 68.185C95.5996 72.6361 97.1226 70.7328 98.6055 71.7955M98.6055 71.7955C98.7764 71.7136 98.9396 71.6497 99.0963 71.6013M98.6055 71.7955C98.7816 71.7111 98.9495 71.6459 99.1105 71.597M103.974 71.6156L103.526 102.746M103.974 71.6156C103.825 71.6747 103.676 71.7347 103.526 71.7955M103.974 71.6156L103.977 71.6142M103.974 71.6156L103.76 86.46M103.526 71.7955C103.677 71.7343 103.828 71.6738 103.977 71.6142M103.526 71.7955C102.647 72.1517 101.973 71.9461 101.284 71.7359M103.76 86.46L103.526 102.746M103.76 86.46L101.235 87.7988M125.02 68.8056C125.788 68.9668 126.993 69.4099 127.767 69.6303V84M125.02 68.8056V106.146M125.02 68.8056V82.4956M119.064 68.185C120.175 68.1812 121.264 68.2437 122.345 68.3687M119.064 68.185C118.931 84.2567 118.851 93.8848 118.727 108.83M119.064 68.185L118.727 108.83M119.064 68.185L118.966 80M118.69 113.282L134.5 106.146V101.812M118.69 113.282L97.5696 104.311V100.362M118.69 113.282C118.703 111.742 118.715 110.262 118.727 108.83M118.69 113.282L118.727 108.83M180.242 269.249C180.242 269.249 178.412 268.695 176.493 268.708C175.033 268.718 173.521 269.056 172.724 270.217C168.61 269.249 169.603 272.124 167.613 273.983C167.613 273.983 164.591 271.479 163.703 273.983C159.918 273.983 160.328 279.06 156.151 281.788C155.844 281.988 155.501 282.193 155.115 282.403C150.796 280.789 145.013 284.233 143.351 287.527C141.357 287.527 140.239 288.439 139.059 288.26C138.267 288.139 137.139 290.038 136.008 291.921C134.969 293.649 132.777 293.801 130.765 293.665C128.356 293.503 126.084 294.759 124.557 296.313C123.357 295.742 121.69 298.901 120.126 302.364C118.683 303.773 117.874 304.079 116.431 302.364M180.242 269.249C180.174 268.021 180.608 266.204 181.414 265.308C182.085 264.562 184.468 263.564 184.838 262.631C186.038 259.611 188.892 256.713 192.36 256.046L192.009 252.798M180.242 269.249L177 241.49M180.242 269.249C180.253 269.448 180.203 269.078 180.242 269.249ZM116.431 123.532C116.431 193.37 116.431 232.525 116.431 302.364M116.431 123.532V302.364M134.5 87.1642V95.2732V101.812M103.526 102.746L105.884 103.69M103.526 102.746L101.193 101.812M105.884 103.69V70.8855M105.884 103.69L109.716 105.223M105.884 103.69V85.4389M105.884 70.8855C106.136 70.7933 106.386 70.7037 106.633 70.6165C107.696 70.2428 108.722 69.9146 109.716 69.6303M105.884 70.8855C105.261 71.1131 104.626 71.3559 103.977 71.6142M105.884 70.8855V85.4389M116.442 68.3142L115.716 107.625M116.442 68.3142L112.375 68.9575M116.442 68.3142L116.22 80.3338M115.716 107.625L112.375 106.287M115.716 107.625L116.22 80.3338M115.716 107.625L118.727 108.83M109.716 69.6303V105.223M109.716 69.6303V83.3969M109.716 105.223V83.3969M109.716 105.223L112.375 106.287M112.375 68.9575V106.287M112.375 68.9575V82.3758M112.375 106.287V82.3758M122.345 68.3687V107.221M122.345 68.3687V81.5M97.5696 100.362L118.727 108.83M97.5696 100.362L99.0963 100.973M118.727 108.83L122.345 107.221M118.727 108.83L118.966 80M130.225 103.986L127.767 104.92M130.225 103.986L132.087 103.051M130.225 103.986V85.4389M127.767 104.92V99.393V84M127.767 104.92L125.02 106.146M125.02 106.146L122.345 107.221M125.02 106.146V82.4956M122.345 107.221V81.5M99.0963 100.973V88.9937M99.0963 100.973L101.193 101.812M99.0963 71.6013V88.9937M99.0963 71.6013L99.1105 71.597M99.0963 71.6013C99.1136 71.5959 99.1308 71.5908 99.1479 71.5858M99.0963 71.6013C99.101 71.5998 99.1058 71.5984 99.1105 71.597M101.193 101.812V87.8213L101.235 87.7988M101.193 101.812L101.235 87.7988M101.284 71.7359C100.658 71.5446 100.019 71.3496 99.2016 71.5708M101.284 71.7359L101.235 87.7988M109.716 83.3969L105.884 85.4389M116.22 80.3338L112.375 82.3758M118.966 80L122.345 81.5M125.02 82.4956L127.767 84M54.4775 268.772C54.5145 268.816 54.6411 268.956 54.8285 269.163C56.7176 271.242 60.1257 271.425 62.3661 273.12V273.12C64.3679 274.634 68.4685 274.641 70.9515 275.009C75.097 275.623 80.9538 279.496 82.8626 282.403C86.7345 278.64 87.3448 283.048 89.1686 285.9C89.4907 286.403 90.1843 286.393 90.6114 285.975C93.4625 283.184 93.8308 285.945 94.8759 288.47C95.138 289.104 95.9417 289.155 96.5008 288.758C98.7991 287.126 99.8916 290.505 99.5642 292.286L99.8126 292.652V292.652C101.522 292.088 103.317 293.244 103.508 295.035L103.801 297.777L104.806 297.531C107.673 296.83 110.624 298.317 111.765 301.038L112.321 302.364C113.926 303.934 114.826 303.613 116.431 302.364M54.4775 268.772C54.1642 268.404 53.9381 268.09 53.7745 267.833C52.584 265.963 50.9593 267.26 50.8021 265.048V265.048C50.6684 263.167 48.2257 263.2 46.3396 263.236C45.602 263.25 44.7416 263.604 43.5994 264.41C43.2389 264.665 42.738 264.61 42.4618 264.266V264.266C42.2882 264.049 42.2363 263.759 42.2795 263.485C42.5792 261.581 42.549 255.511 42.1829 249.759M54.4775 268.772L59.4445 241.048M177 241.49L192.009 252.798M134.5 101.812L132.087 103.051M132.087 103.051V86.2297M99.2016 71.5708C99.1965 71.5722 99.1913 71.5736 99.1862 71.575M99.2016 71.5708L99.1862 71.575M132.087 86.2297V70.6165L130.225 70.0043V85.4389M132.087 86.2297L130.225 85.4389M42.1829 249.759L59.4445 241.048M99.1479 71.5858C99.1608 71.5821 99.1735 71.5785 99.1862 71.575M99.1479 71.5858C99.1355 71.5894 99.123 71.5932 99.1105 71.597M99.1862 71.575C99.1611 71.5819 99.1359 71.5892 99.1105 71.597" stroke="#265F85"/>
</g>
<defs>
<linearGradient id="paint0_linear_20_326" x1="110.728" y1="202.737" x2="108.758" y2="667.495" gradientUnits="userSpaceOnUse">
<stop stop-color="white"/>
<stop offset="1" stop-color="#4C8CB8" stop-opacity="0"/>
</linearGradient>
<linearGradient id="paint1_linear_20_326" x1="110.728" y1="202.737" x2="108.758" y2="667.495" gradientUnits="userSpaceOnUse">
<stop stop-color="white"/>
<stop offset="1" stop-color="#4C8CB8" stop-opacity="0"/>
</linearGradient>
<linearGradient id="paint2_linear_20_326" x1="119.903" y1="74.0809" x2="150.401" y2="142.481" gradientUnits="userSpaceOnUse">
<stop stop-color="white"/>
</linearGradient>
<linearGradient id="paint3_linear_20_326" x1="113.301" y1="97.4439" x2="111.865" y2="153.197" gradientUnits="userSpaceOnUse">
<stop stop-color="white"/>
<stop offset="1" stop-color="#4C8CB8" stop-opacity="0"/>
</linearGradient>
<linearGradient id="paint4_linear_20_326" x1="110.728" y1="202.737" x2="108.758" y2="667.495" gradientUnits="userSpaceOnUse">
<stop stop-color="white"/>
<stop offset="1" stop-color="#4C8CB8" stop-opacity="0"/>
</linearGradient>
<linearGradient id="paint5_linear_20_326" x1="110.728" y1="202.737" x2="108.758" y2="667.495" gradientUnits="userSpaceOnUse">
<stop stop-color="white"/>
<stop offset="1" stop-color="#4C8CB8" stop-opacity="0"/>
</linearGradient>
</defs>
</svg>
