<svg width="352" height="423" viewBox="0 0 352 423" fill="none" xmlns="http://www.w3.org/2000/svg">
<g opacity="0.1" filter="url(#filter0_d_105_466)">
<path d="M147.072 55.005L97.4727 96.6804L106.886 139.805L97.4727 180.031L147.072 216.633L191.241 206.486L240.841 216.633L279.941 180.031L271.976 139.805L279.941 96.6804L240.841 55.005L191.241 67.3264L147.072 55.005Z" fill="url(#paint0_linear_105_466)" shape-rendering="crispEdges"/>
<path fill-rule="evenodd" clip-rule="evenodd" d="M241.169 53.8931L281.016 96.3648L273.059 139.452C383.144 243.664 309.026 401.005 191.241 401.005C138.632 401.005 97.5358 377.761 73.3227 343.013C49.1169 308.276 41.8282 262.105 56.6866 216.324C65.2939 189.804 81.3286 163.427 105.791 139.477L96.3669 96.3034L146.833 53.9L191.256 66.2923L241.169 53.8931ZM105.121 142.958C82.0379 166.146 66.8456 191.502 58.5889 216.942C56.1997 224.303 54.3908 231.673 53.1395 239C46.7054 276.676 55.0125 313.238 74.9637 341.87C98.7878 376.059 139.26 399.005 191.241 399.005C262.724 399.005 318.094 339.949 324.405 270.5C325.41 259.449 325.172 248.136 323.559 236.755C318.982 204.455 303.331 171.614 273.572 142.715L281.03 180.382L255.282 204.485L241.147 217.716L216.355 212.644L191.254 207.509L146.848 217.711L96.349 180.445L105.121 142.958ZM240.513 56.1168L191.226 68.3604L147.312 56.1099L98.5786 97.0574L107.911 139.813L98.5965 179.618L147.296 215.556L191.229 205.463L240.535 215.55L278.852 179.681L270.958 139.812L278.866 96.9959L240.513 56.1168Z" fill="white" fill-opacity="0.25" shape-rendering="crispEdges"/>
<path d="M147.072 55.005L97.4727 96.6804L106.886 139.805L97.4727 180.031L122.273 198.332L147.072 216.633L162 213.204L191.241 206.486L216.041 211.56L240.841 216.633L255 203.379L279.941 180.031L271.976 139.805L279.941 96.6804L240.841 55.005L191.241 67.3264L147.072 55.005Z" fill="url(#paint1_linear_105_466)" shape-rendering="crispEdges"/>
<path d="M147.072 216.633L122.273 198.332L106.886 227.755L141 247.755L162 213.204L147.072 216.633Z" fill="url(#paint2_linear_105_466)" shape-rendering="crispEdges"/>
<path fill-rule="evenodd" clip-rule="evenodd" d="M97.4727 180.031L106.886 139.805C82.3081 163.753 66.2381 190.134 57.6377 216.633C28.1052 307.626 86.6503 400.005 191.241 400.005C308.18 400.005 382.037 243.45 271.976 139.805L279.941 180.031L255 203.379L240.841 216.633L216.041 211.56L191.241 206.486L147.072 216.633L97.4727 180.031ZM83.5 279L58.5889 216.942C56.1997 224.303 54.3908 231.673 53.1395 239L83.5 279L125.5 285.5L142.761 307.225C149.65 315.896 161.576 318.727 171.627 314.079L191.256 305L214.682 317.629C222.025 321.588 230.897 321.449 238.113 317.263L279.941 293L301.5 270.5C318.153 257.864 322.774 258.511 324.405 270.5C325.41 259.449 325.172 248.136 323.559 236.755C301.121 256.748 301.445 261.596 301.5 270.5L279.941 293L231.465 307.967C228.193 308.977 224.742 309.276 221.345 308.842L191.256 305L154.5 296L125.5 285.5L83.5 279ZM241.147 217.716L255.282 204.485L263.5 236.755L226.5 247.755L216.355 212.644L241.147 217.716Z" fill="url(#paint3_linear_105_466)" shape-rendering="crispEdges"/>
<path d="M226.5 247.755L263.5 236.755L255.282 204.485L241.147 217.716L216.355 212.644L226.5 247.755Z" fill="url(#paint4_linear_105_466)" shape-rendering="crispEdges"/>
<path fill-rule="evenodd" clip-rule="evenodd" d="M58.5889 216.942L83.5 279L53.1395 239C54.3908 231.673 56.1997 224.303 58.5889 216.942ZM171.627 314.079C161.576 318.727 149.65 315.896 142.761 307.225L125.5 285.5L154.5 296L191.256 305L171.627 314.079ZM191.256 305L221.345 308.842C224.742 309.276 228.193 308.977 231.465 307.967L279.941 293L238.113 317.263C230.897 321.449 222.025 321.588 214.682 317.629L191.256 305Z" fill="url(#paint5_linear_105_466)" shape-rendering="crispEdges"/>
<path d="M323.559 236.755C301.121 256.748 301.445 261.596 301.5 270.5C318.153 257.864 322.774 258.511 324.405 270.5C325.41 259.449 325.172 248.136 323.559 236.755Z" fill="url(#paint6_linear_105_466)" shape-rendering="crispEdges"/>
</g>
<defs>
<filter id="filter0_d_105_466" x="0.00012207" y="0.893066" width="351.994" height="421.112" filterUnits="userSpaceOnUse" color-interpolation-filters="sRGB">
<feFlood flood-opacity="0" result="BackgroundImageFix"/>
<feColorMatrix in="SourceAlpha" type="matrix" values="0 0 0 0 0 0 0 0 0 0 0 0 0 0 0 0 0 0 127 0" result="hardAlpha"/>
<feOffset dx="-12" dy="-16"/>
<feGaussianBlur stdDeviation="18.5"/>
<feComposite in2="hardAlpha" operator="out"/>
<feColorMatrix type="matrix" values="0 0 0 0 0 0 0 0 0 0 0 0 0 0 0 0 0 0 0.4 0"/>
<feBlend mode="normal" in2="BackgroundImageFix" result="effect1_dropShadow_105_466"/>
<feBlend mode="normal" in="SourceGraphic" in2="effect1_dropShadow_105_466" result="shape"/>
</filter>
<linearGradient id="paint0_linear_105_466" x1="187.997" y1="53.8931" x2="266.43" y2="194.069" gradientUnits="userSpaceOnUse">
<stop stop-color="white" stop-opacity="0.15"/>
<stop offset="1" stop-color="white"/>
</linearGradient>
<linearGradient id="paint1_linear_105_466" x1="197.5" y1="100.755" x2="206.775" y2="191.493" gradientUnits="userSpaceOnUse">
<stop offset="0.0572917" stop-opacity="0.15"/>
<stop offset="1" stop-opacity="0.81"/>
</linearGradient>
<linearGradient id="paint2_linear_105_466" x1="197.5" y1="100.755" x2="206.775" y2="191.493" gradientUnits="userSpaceOnUse">
<stop offset="0.0572917" stop-opacity="0.15"/>
<stop offset="1" stop-opacity="0.81"/>
</linearGradient>
<linearGradient id="paint3_linear_105_466" x1="75" y1="425.5" x2="318.307" y2="258.373" gradientUnits="userSpaceOnUse">
<stop offset="0.0572917" stop-color="white" stop-opacity="0"/>
<stop offset="1" stop-opacity="0.81"/>
</linearGradient>
<linearGradient id="paint4_linear_105_466" x1="197.5" y1="100.755" x2="268.041" y2="288.617" gradientUnits="userSpaceOnUse">
<stop offset="0.0572917" stop-opacity="0.15"/>
<stop offset="1" stop-opacity="0.81"/>
</linearGradient>
<linearGradient id="paint5_linear_105_466" x1="215" y1="200.5" x2="232.881" y2="346.424" gradientUnits="userSpaceOnUse">
<stop offset="0.0572917" stop-color="white" stop-opacity="0.15"/>
<stop offset="1" stop-opacity="0.81"/>
</linearGradient>
<linearGradient id="paint6_linear_105_466" x1="239.5" y1="313.5" x2="308.702" y2="267.01" gradientUnits="userSpaceOnUse">
<stop offset="0.0572917" stop-color="white" stop-opacity="0.15"/>
<stop offset="1" stop-opacity="0.81"/>
</linearGradient>
</defs>
</svg>
