<svg  viewBox="0 0 150 230" fill="none" xmlns="http://www.w3.org/2000/svg">
<path d="M1.46729e-05 198.919L70.8333 229.5V72.6646C70.8333 67.0808 67.5773 62.0098 62.5 59.686L0 31.0811L1.46729e-05 198.919Z" fill="url(#paint0_linear_364_1952)"/>
<path d="M3.74352 31.6947L75 2.16495L148 32.4172L148 197.547L71.8333 226.97V72.6646C71.8333 66.6896 68.3492 61.2633 62.9162 58.7767L3.74352 31.6947Z" fill="url(#paint1_linear_364_1952)"/>
<path fill-rule="evenodd" clip-rule="evenodd" d="M70.8333 229.5V72.6646C70.8333 67.0808 67.5773 62.0098 62.5 59.686L0 31.0811L1.46729e-05 198.919L70.8333 229.5ZM62.0839 60.5953L2 33.0962L2.00001 197.604L69.8333 226.89V72.6646C69.8333 67.472 66.8054 62.7563 62.0839 60.5953Z" fill="white"/>
<defs>
<linearGradient id="paint0_linear_364_1952" x1="74.5002" y1="69.3453" x2="74.8408" y2="229.5" gradientUnits="userSpaceOnUse">
<stop stop-color="white"/>
<stop offset="1" stop-color="#BFD9EC"/>
</linearGradient>
<linearGradient id="paint1_linear_364_1952" x1="39.5" y1="-72.5" x2="74.6998" y2="229.535" gradientUnits="userSpaceOnUse">
<stop stop-color="#4C8CB8"/>
<stop offset="1" stop-color="white"/>
</linearGradient>
</defs>
</svg>
