<?xml version="1.0" standalone="no"?>
<!DOCTYPE svg PUBLIC "-//W3C//DTD SVG 20010904//EN"
 "http://www.w3.org/TR/2001/REC-SVG-20010904/DTD/svg10.dtd">
<svg version="1.0" xmlns="http://www.w3.org/2000/svg"
 width="752.000000pt" height="752.000000pt" viewBox="0 0 752.000000 752.000000"
 preserveAspectRatio="xMidYMid meet">

<g transform="translate(0.000000,752.000000) scale(0.100000,-0.100000)" stroke="none">
<path d="M4738 6120 c-148 -27 -268 -89 -374 -195 -84 -83 -121 -137 -160
-233 l-23 -57 -1335 -5 -1334 -5 -39 -31 c-55 -45 -77 -88 -78 -154 0 -70 28
-125 84 -165 l43 -30 1331 -5 1331 -5 23 -58 c64 -159 184 -285 344 -362 201
-96 452 -85 645 29 125 73 234 200 289 333 l23 58 244 5 245 5 42 28 c58 39
96 119 87 185 -8 57 -31 96 -79 136 l-39 31 -249 5 -250 5 -23 57 c-39 96 -76
150 -160 234 -90 89 -194 150 -305 179 -77 20 -217 27 -283 15z m240 -419
c222 -114 211 -430 -17 -535 -33 -14 -66 -20 -116 -20 -115 0 -210 57 -263
158 -36 70 -38 188 -4 257 36 74 105 135 182 160 47 16 172 4 218 -20z"/>
<path d="M2535 4436 c-236 -55 -427 -217 -503 -428 l-17 -48 -220 0 c-130 0
-236 -5 -260 -11 -86 -24 -156 -133 -140 -218 14 -75 73 -141 142 -160 21 -6
135 -11 258 -11 l220 0 17 -47 c67 -186 234 -344 435 -411 68 -22 95 -26 208
-26 114 0 140 4 210 27 44 15 109 43 144 64 121 72 243 218 289 346 l17 47
1305 0 c880 0 1317 4 1343 11 69 19 128 85 142 160 16 85 -54 194 -140 218
-28 8 -420 11 -1345 11 l-1305 0 -17 48 c-46 127 -168 273 -289 345 -139 82
-347 117 -494 83z m237 -398 c61 -18 129 -77 163 -143 26 -50 30 -70 30 -135
0 -65 -4 -85 -30 -135 -106 -207 -403 -211 -518 -7 -53 94 -48 209 12 304 70
110 204 156 343 116z"/>
<path d="M4674 2751 c-215 -58 -387 -208 -467 -407 l-23 -59 -1330 -5 -1330
-5 -43 -28 c-58 -39 -96 -119 -87 -185 8 -57 31 -97 79 -136 l39 -31 1334 -5
1335 -5 23 -57 c39 -96 76 -150 160 -233 135 -135 289 -199 476 -200 129 0
188 14 310 72 79 38 108 59 176 127 84 84 121 138 160 234 l23 57 250 5 249 5
39 31 c55 45 77 88 78 154 0 70 -28 125 -84 165 l-43 30 -245 5 -245 5 -23 58
c-75 184 -229 327 -424 394 -104 36 -282 42 -387 14z m292 -400 c182 -81 231
-328 94 -470 -57 -58 -112 -83 -195 -89 -125 -7 -232 55 -287 167 -34 69 -32
187 4 256 75 142 238 200 384 136z"/>
</g>
</svg>
