<svg width="44" height="44" viewBox="0 0 44 44" fill="none" xmlns="http://www.w3.org/2000/svg">
<path d="M22.6789 0.180469C22.2578 -0.0601563 21.7422 -0.0601563 21.3211 0.180469L1.35781 11.4898C0.515625 11.9711 0 12.8563 0 13.8188C0 15.2969 1.20312 16.5 2.68125 16.5H41.3187C42.7969 16.5 44 15.2969 44 13.8188C44 12.8563 43.4844 11.9625 42.6422 11.4898L22.6789 0.180469ZM22 2.95625L41.0523 13.75H2.94766L22 2.95625ZM5.5 30.25C4.74375 30.25 4.125 30.8687 4.125 31.625C4.125 32.3813 4.74375 33 5.5 33H38.5C39.2563 33 39.875 32.3813 39.875 31.625C39.875 30.8687 39.2563 30.25 38.5 30.25V19.25H35.75V30.25H28.875V19.25H26.125V30.25H17.875V19.25H15.125V30.25H8.25V19.25H5.5V30.25ZM2.0625 37.125C2.0625 37.8813 2.68125 38.5 3.4375 38.5H40.5625C41.3188 38.5 41.9375 37.8813 41.9375 37.125C41.9375 36.3687 41.3188 35.75 40.5625 35.75H3.4375C2.68125 35.75 2.0625 36.3687 2.0625 37.125ZM0 42.625C0 43.3813 0.61875 44 1.375 44H42.625C43.3813 44 44 43.3813 44 42.625C44 41.8687 43.3813 41.25 42.625 41.25H1.375C0.61875 41.25 0 41.8687 0 42.625Z" fill="white"/>
</svg>
