<svg width="33" height="33" viewBox="0 0 33 33" fill="none" xmlns="http://www.w3.org/2000/svg">
<path d="M8.60121e-08 16.502C-0.000921433 7.39316 7.40304 -0.00807002 16.5081 6.60394e-06C25.6155 0.00808322 33.0059 7.39638 33 16.5C32.9941 25.6221 25.6214 32.9989 16.4934 33C7.3865 33.0011 0.000921605 25.6058 8.60121e-08 16.502ZM16.6047 30.3972C17.2359 30.4043 17.9767 30.3529 18.713 30.2504C19.1048 30.1958 19.5 30.139 19.8805 30.0352C21.0916 29.7046 22.2455 29.2251 23.337 28.6052C23.812 28.3355 24.2822 28.0504 24.7223 27.7282C25.5354 27.1329 26.2674 26.4421 26.9332 25.6855C27.2611 25.3128 27.5881 24.9347 27.8711 24.5282C28.5756 23.5162 29.1389 22.4251 29.5719 21.2706C29.7637 20.7593 29.9537 20.242 30.0779 19.7118C30.2805 18.8464 30.36 17.96 30.3892 17.0712C30.4196 16.1485 30.3823 15.228 30.253 14.3136C30.196 13.9109 30.1382 13.5047 30.0319 13.1133C29.7042 11.9071 29.2251 10.759 28.609 9.67191C28.3397 9.19675 28.0544 8.72671 27.7332 8.28573C27.1931 7.54404 26.5657 6.87529 25.8906 6.2532C25.4347 5.83303 24.9698 5.42215 24.4541 5.07551C23.4539 4.40336 22.3906 3.84925 21.2626 3.4266C20.7512 3.23501 20.2336 3.04643 19.7034 2.92222C18.8434 2.72076 17.9625 2.64233 17.0793 2.61264C16.1511 2.58142 15.225 2.61941 14.3051 2.74949C13.9025 2.80643 13.4965 2.86585 13.1052 2.97232C11.8936 3.30194 10.7409 3.7842 9.64997 4.40518C9.18014 4.67262 8.71444 4.95446 8.27907 5.27367C7.47098 5.86615 6.74187 6.55182 6.0799 7.3044C5.7484 7.68127 5.41678 8.06277 5.13045 8.4737C4.42557 9.48539 3.86273 10.5769 3.42959 11.7313C3.23775 12.2426 3.04772 12.7599 2.92358 13.29C2.72095 14.1555 2.64138 15.0419 2.61222 15.9307C2.58196 16.8533 2.61909 17.7738 2.74847 18.6882C2.80546 19.0909 2.86333 19.4971 2.96962 19.8885C3.2972 21.0947 3.7764 22.2428 4.39246 23.3299C4.66175 23.8051 4.946 24.2761 5.26833 24.7161C5.86045 25.5243 6.5454 26.2542 7.29805 26.9162C7.67495 27.2477 8.05532 27.5809 8.46649 27.8668C9.53922 28.6126 10.6986 29.2007 11.9266 29.6467C12.3926 29.816 12.8646 29.9824 13.3474 30.0884C14.381 30.3154 15.4333 30.399 16.6047 30.3972Z" fill="#4C8CB8"/>
<path d="M14.5219 13.9661C13.4833 13.9661 12.463 13.9661 11.4329 13.9661C11.4085 13.7192 11.4405 13.4844 11.4827 13.2511C11.6429 12.3643 12.1271 11.6917 12.8036 11.1576C13.5716 10.5512 14.4411 10.1945 15.401 10.0732C16.1691 9.97621 16.936 9.9619 17.6986 10.1147C18.3327 10.2417 18.9413 10.455 19.5138 10.7654C20.125 11.0968 20.6289 11.556 20.9746 12.1814C21.2585 12.695 21.4312 13.2532 21.5227 13.835C21.5649 14.1032 21.5818 14.3783 21.5826 14.6504C21.588 16.5118 21.5954 18.3732 21.582 20.2345C21.5763 21.0206 21.7127 21.7716 21.9669 22.5065C21.9947 22.5868 21.9884 22.6797 22 22.7854C21.9209 22.7854 21.8671 22.7854 21.8134 22.7854C20.8571 22.7854 19.9008 22.7855 18.9444 22.7854C18.7544 22.7853 18.7516 22.7795 18.6888 22.5946C18.5957 22.3203 18.5437 22.0358 18.4869 21.7524C18.4794 21.7149 18.4677 21.6784 18.4551 21.6308C18.282 21.7719 18.1043 21.8906 17.9579 22.0417C17.713 22.2946 17.4142 22.447 17.1023 22.5737C16.8114 22.6918 16.5124 22.79 16.2129 22.883C16.0561 22.9317 15.8918 22.9672 15.7289 22.9796C14.9365 23.0401 14.1601 22.9764 13.4177 22.6474C12.982 22.4543 12.5539 22.2478 12.1775 21.9461C12.0353 21.8321 11.8947 21.7054 11.7862 21.5585C11.1871 20.7469 10.9164 19.8344 11.0226 18.8091C11.0772 18.2816 11.213 17.7827 11.4685 17.3212C11.6818 16.9359 11.9652 16.616 12.3025 16.3417C12.8844 15.8684 13.5432 15.5738 14.2603 15.4057C15.0798 15.2136 15.9113 15.1574 16.7486 15.1598C17.2542 15.1612 17.7598 15.16 18.2655 15.16C18.325 15.16 18.3845 15.16 18.4327 15.16C18.4493 15.1346 18.4602 15.1256 18.4603 15.1164C18.4664 14.7188 18.4958 14.3201 18.4253 13.9251C18.386 13.7046 18.3056 13.4998 18.1888 13.3107C18.0746 13.1257 17.9295 12.9759 17.7457 12.8616C17.3598 12.6216 16.9402 12.503 16.4949 12.4768C16.2035 12.4596 15.9126 12.4694 15.6256 12.5343C14.9861 12.6789 14.5751 13.1745 14.5325 13.8535C14.5304 13.8867 14.5263 13.9198 14.5219 13.9661ZM18.2625 17.1049C18.2214 17.0959 18.2057 17.0894 18.19 17.0895C17.5193 17.0907 16.8487 17.092 16.178 17.0945C15.7818 17.096 15.4063 17.1936 15.0441 17.3565C14.7117 17.5061 14.468 17.7678 14.2317 18.0384C14.1888 18.0875 14.1644 18.155 14.136 18.2163C14.0078 18.4925 14.0044 18.789 14.01 19.0858C14.0227 19.7545 14.4001 20.256 15.0244 20.4334C15.417 20.5449 15.8176 20.5469 16.2191 20.5132C16.3224 20.5045 16.4307 20.4916 16.525 20.4514C16.8445 20.315 17.1617 20.1717 17.4735 20.0174C17.5799 19.9647 17.677 19.8814 17.762 19.7949C17.9026 19.6519 18.0247 19.4896 18.1649 19.3461C18.2379 19.2713 18.2653 19.1964 18.2646 19.0914C18.2603 18.4822 18.2625 17.873 18.2625 17.2638C18.2625 17.2134 18.2625 17.1631 18.2625 17.1049Z" fill="#4C8CB8"/>
</svg>
