<svg width="144" height="44" viewBox="0 0 144 44" fill="none" xmlns="http://www.w3.org/2000/svg">
<path d="M21.7344 41.5898C32.6334 41.5898 41.4688 32.7273 41.4688 21.7949C41.4688 10.8625 32.6334 2 21.7344 2C10.8354 2 2 10.8625 2 21.7949C2 32.7273 10.8354 41.5898 21.7344 41.5898Z" stroke="#3a3a3a" stroke-width="4"/>
<path d="M25.1715 29.8596C25.0779 29.6642 24.9977 29.4339 24.9308 29.1756C24.8639 28.9174 24.8105 28.6452 24.757 28.359C24.5363 28.6103 24.289 28.8406 24.0015 29.057C23.714 29.2733 23.3998 29.4688 23.0454 29.6363C22.7044 29.7968 22.3234 29.9224 21.9022 30.0062C21.481 30.1039 21.033 30.1528 20.545 30.1528C19.756 30.1528 19.0273 30.0341 18.3654 29.7968C17.7102 29.5595 17.1419 29.2245 16.6672 28.7987C16.1925 28.373 15.8181 27.8635 15.5574 27.2772C15.29 26.684 15.1562 26.0349 15.1562 25.3439C15.1562 23.6479 15.758 22.3358 16.9681 21.4145C18.1849 20.4793 19.9967 20.0117 22.4036 20.0117H24.6166V19.0555C24.6166 18.2808 24.3759 17.6736 23.8878 17.2269C23.3998 16.7732 22.7044 16.5429 21.7885 16.5429C20.9795 16.5429 20.3912 16.7244 20.0168 17.0943C19.6491 17.4502 19.4619 17.9318 19.4619 18.539H15.4972C15.4972 17.855 15.6376 17.2059 15.9251 16.5848C16.2193 15.9706 16.6405 15.4262 17.1954 14.9586C17.757 14.4909 18.4389 14.128 19.2345 13.8558C20.0435 13.5766 20.9662 13.4371 22.0024 13.4371C22.9318 13.4371 23.8009 13.5557 24.5965 13.793C25.4055 14.0303 26.1008 14.3863 26.6958 14.8469C27.2842 15.3145 27.7455 15.9078 28.0798 16.6197C28.4141 17.3246 28.5812 18.1412 28.5812 19.0764V25.986C28.5812 26.8515 28.6347 27.5634 28.735 28.1287C28.8419 28.6941 28.989 29.1826 29.1896 29.5874V29.8387H25.1715V29.8596V29.8596ZM21.394 26.9562C21.7952 26.9562 22.1629 26.9073 22.5039 26.8096C22.8448 26.7119 23.1524 26.5793 23.4332 26.4257C23.7073 26.2652 23.948 26.0907 24.1486 25.8883C24.3491 25.679 24.5029 25.4696 24.6166 25.2602V22.4894H22.5908C21.9757 22.4894 21.4475 22.5522 21.0063 22.6848C20.5717 22.8034 20.2107 22.9779 19.9365 23.2082C19.6624 23.4246 19.4552 23.6968 19.3215 24.0109C19.1877 24.318 19.1209 24.653 19.1209 25.0229C19.1209 25.5812 19.3081 26.0419 19.6758 26.4048C20.0636 26.7747 20.6319 26.9562 21.394 26.9562Z" fill="#3a3a3a"/>
<path d="M60.4938 27.2053C60.4193 27.0612 60.3607 26.8956 60.3075 26.7034C60.2543 26.5165 60.2117 26.3136 60.1798 26.1054C60.0147 26.2869 59.8231 26.4578 59.6048 26.618C59.3866 26.7782 59.147 26.917 58.8756 27.0451C58.6147 27.1626 58.3273 27.2534 58.0079 27.3175C57.6885 27.3922 57.3478 27.4242 56.9751 27.4242C56.3736 27.4242 55.82 27.3388 55.3143 27.1626C54.8139 26.9864 54.3827 26.7461 54.0207 26.4311C53.6588 26.1214 53.3766 25.7476 53.1743 25.3205C52.9721 24.8826 52.8709 24.4127 52.8709 23.9055C52.8709 22.6613 53.3287 21.7055 54.2496 21.0328C55.1759 20.3493 56.5546 20.0076 58.3858 20.0076H60.068V19.3081C60.068 18.7421 59.8817 18.2936 59.5144 17.9678C59.147 17.6314 58.6147 17.4659 57.9174 17.4659C57.2999 17.4659 56.8527 17.5994 56.5706 17.8664C56.2884 18.128 56.1447 18.4804 56.1447 18.9236H53.1264C53.1264 18.4217 53.2329 17.9465 53.4511 17.498C53.6747 17.0494 53.9994 16.6543 54.42 16.3126C54.8458 15.9708 55.3622 15.7039 55.9744 15.5063C56.5919 15.3034 57.2892 15.2019 58.0824 15.2019C58.7904 15.2019 59.4505 15.2874 60.0573 15.4636C60.6748 15.6398 61.2071 15.8961 61.6543 16.2378C62.1015 16.5795 62.4528 17.0121 62.7083 17.5353C62.9638 18.0533 63.0863 18.6513 63.0863 19.3348V24.386C63.0863 25.0161 63.1235 25.5394 63.2034 25.9559C63.2832 26.3724 63.4003 26.7248 63.5494 27.0238V27.2107H60.4938V27.2053ZM57.6139 25.0802C57.9174 25.0802 58.1995 25.0428 58.4603 24.9734C58.7212 24.8986 58.9554 24.8079 59.1683 24.6904C59.3759 24.5729 59.5569 24.4448 59.7113 24.3006C59.8657 24.1457 59.9828 23.9962 60.068 23.8414V21.8123H58.5242C58.0558 21.8123 57.6512 21.8604 57.3212 21.9565C56.9858 22.0419 56.7143 22.1701 56.5067 22.3356C56.2991 22.4958 56.1394 22.6934 56.0383 22.923C55.9371 23.1472 55.8839 23.3929 55.8839 23.6652C55.8839 24.071 56.0276 24.4074 56.3097 24.6797C56.6025 24.9467 57.039 25.0802 57.6139 25.0802Z" fill="#3a3a3a"/>
<path d="M74.9465 15.2019C75.4043 15.2019 75.8248 15.234 76.2081 15.298C76.5967 15.3568 76.9161 15.4209 77.1503 15.4956L76.7032 18.5125C76.3039 18.4164 75.894 18.3469 75.4788 18.3042C75.0636 18.2508 74.6697 18.2295 74.2971 18.2295C73.4507 18.2295 72.7693 18.395 72.2583 18.7207C71.7525 19.0464 71.3693 19.5163 71.1191 20.125V27.2053H68.1008V15.4209H70.9115L71.0552 17.3484C71.5343 16.681 72.1039 16.1577 72.7693 15.7786C73.4294 15.3942 74.1587 15.2019 74.9465 15.2019Z" fill="#3a3a3a"/>
<path d="M87.3817 23.5103L88.4037 15.4155H91.1718L89.0638 27.2H86.4128L84.8691 19.7085L83.3839 27.2H80.7329L78.6249 15.4155H81.3823L82.4044 23.5424L83.879 15.4155H85.8965L87.3817 23.5103Z" fill="#3a3a3a"/>
<path d="M98.9225 27.4242C98.0176 27.4242 97.1978 27.2747 96.4578 26.9757C95.7179 26.6767 95.0844 26.2762 94.5574 25.769C94.0304 25.251 93.6205 24.653 93.3331 23.9589C93.0509 23.2594 92.9072 22.5172 92.9072 21.7269V21.2891C92.9072 20.3867 93.0509 19.5697 93.3331 18.8275C93.6152 18.08 94.0091 17.4392 94.5149 16.8999C95.0206 16.3606 95.6221 15.9441 96.3194 15.6451C97.0168 15.3461 97.7727 15.1966 98.5872 15.1966C99.4336 15.1966 100.189 15.3408 100.844 15.6238C101.51 15.9014 102.069 16.2912 102.526 16.7985C102.989 17.3057 103.341 17.9198 103.58 18.6406C103.82 19.3508 103.937 20.1411 103.937 21.0061V22.2929H95.9681C96.0267 22.6934 96.1438 23.0565 96.3141 23.3929C96.4951 23.7186 96.724 24.0016 96.9955 24.2419C97.2723 24.4821 97.5864 24.669 97.9377 24.7972C98.2944 24.9253 98.6776 24.9947 99.0982 24.9947C99.3963 24.9947 99.6891 24.968 99.9765 24.9093C100.275 24.8506 100.557 24.7651 100.823 24.6583C101.089 24.5409 101.339 24.402 101.574 24.2312C101.808 24.0656 102.01 23.8681 102.18 23.6438L103.692 25.2777C103.506 25.5447 103.256 25.8117 102.952 26.0733C102.654 26.3296 102.303 26.5539 101.888 26.7621C101.483 26.9597 101.031 27.1199 100.53 27.2427C100.04 27.3602 99.5028 27.4242 98.9225 27.4242ZM98.5659 17.6528C98.2252 17.6528 97.9164 17.7169 97.6343 17.8397C97.3522 17.9572 97.102 18.128 96.8837 18.3523C96.6761 18.5766 96.4951 18.8435 96.3514 19.1586C96.2077 19.4683 96.0959 19.8207 96.0267 20.2051H100.977V19.9648C100.961 19.6445 100.903 19.3455 100.791 19.0625C100.685 18.7795 100.525 18.5338 100.323 18.3309C100.12 18.1227 99.8701 17.9572 99.572 17.8397C99.2845 17.7169 98.9491 17.6528 98.5659 17.6528Z" fill="#3a3a3a"/>
<path d="M113.918 27.2053C113.844 27.0612 113.785 26.8956 113.732 26.7034C113.684 26.5165 113.636 26.3136 113.604 26.1054C113.439 26.2869 113.247 26.4578 113.029 26.618C112.811 26.7782 112.571 26.917 112.3 27.0451C112.039 27.1626 111.752 27.2534 111.432 27.3175C111.113 27.3922 110.772 27.4242 110.399 27.4242C109.798 27.4242 109.244 27.3388 108.739 27.1626C108.238 26.9864 107.807 26.7461 107.445 26.4311C107.083 26.1214 106.801 25.7476 106.599 25.3205C106.396 24.8826 106.295 24.4127 106.295 23.9055C106.295 22.6613 106.753 21.7055 107.674 21.0328C108.6 20.3493 109.979 20.0076 111.81 20.0076H113.492V19.3081C113.492 18.7421 113.306 18.2936 112.939 17.9678C112.571 17.6314 112.039 17.4659 111.342 17.4659C110.724 17.4659 110.277 17.5994 109.995 17.8664C109.713 18.128 109.569 18.4804 109.569 18.9236H106.556C106.556 18.4217 106.663 17.9465 106.881 17.498C107.104 17.0494 107.429 16.6543 107.85 16.3126C108.276 15.9708 108.792 15.7039 109.404 15.5063C110.022 15.3034 110.724 15.2019 111.512 15.2019C112.22 15.2019 112.88 15.2874 113.487 15.4636C114.099 15.6398 114.631 15.8961 115.084 16.2378C115.536 16.5795 115.882 17.0121 116.138 17.5353C116.393 18.0533 116.516 18.6513 116.516 19.3348V24.386C116.516 25.0161 116.559 25.5394 116.638 25.9559C116.718 26.3724 116.835 26.7248 116.984 27.0238V27.2107H113.918V27.2053ZM111.038 25.0802C111.342 25.0802 111.624 25.0428 111.885 24.9734C112.146 24.8986 112.38 24.8079 112.587 24.6904C112.8 24.5729 112.981 24.4448 113.13 24.3006C113.285 24.1457 113.402 23.9962 113.487 23.8414V21.8123H111.943C111.475 21.8123 111.07 21.8604 110.735 21.9565C110.399 22.0419 110.133 22.1701 109.92 22.3356C109.707 22.4958 109.553 22.6934 109.452 22.923C109.351 23.1472 109.298 23.3929 109.298 23.6652C109.298 24.071 109.436 24.4074 109.723 24.6797C110.027 24.9467 110.463 25.0802 111.038 25.0802Z" fill="#3a3a3a"/>
<path d="M124.927 23.7079L125.081 24.5569L125.235 23.7399L127.817 15.4209H130.969L126.508 27.2053H123.676L119.194 15.4209H122.345L124.927 23.7079Z" fill="#3a3a3a"/>
<path d="M138.991 27.4242C138.086 27.4242 137.266 27.2747 136.526 26.9757C135.786 26.6767 135.153 26.2762 134.626 25.769C134.099 25.251 133.689 24.653 133.396 23.9589C133.114 23.2594 132.97 22.5172 132.97 21.7269V21.2891C132.97 20.3867 133.114 19.5697 133.396 18.8275C133.678 18.08 134.072 17.4392 134.578 16.8999C135.083 16.3606 135.685 15.9441 136.382 15.6451C137.08 15.3461 137.836 15.1966 138.65 15.1966C139.496 15.1966 140.247 15.3408 140.907 15.6238C141.573 15.9014 142.137 16.2912 142.589 16.7985C143.052 17.3057 143.404 17.9198 143.643 18.6406C143.883 19.3508 144 20.1411 144 21.0061V22.2929H136.031C136.09 22.6934 136.207 23.0565 136.377 23.3929C136.558 23.7186 136.787 24.0016 137.058 24.2419C137.335 24.4821 137.649 24.669 138.006 24.7972C138.363 24.9253 138.746 24.9947 139.166 24.9947C139.465 24.9947 139.757 24.968 140.045 24.9093C140.343 24.8506 140.625 24.7651 140.891 24.6583C141.157 24.5409 141.408 24.402 141.642 24.2312C141.876 24.0656 142.078 23.8681 142.249 23.6438L143.755 25.2777C143.569 25.5447 143.319 25.8117 143.015 26.0733C142.717 26.3296 142.366 26.5539 141.95 26.7621C141.546 26.9597 141.093 27.1199 140.593 27.2427C140.109 27.3602 139.571 27.4242 138.991 27.4242ZM138.634 17.6528C138.293 17.6528 137.985 17.7169 137.703 17.8397C137.42 17.9572 137.17 18.128 136.952 18.3523C136.744 18.5766 136.563 18.8435 136.42 19.1586C136.276 19.4683 136.164 19.8207 136.095 20.2051H141.046V19.9648C141.03 19.6445 140.971 19.3455 140.859 19.0625C140.753 18.7795 140.593 18.5338 140.391 18.3309C140.188 18.1227 139.938 17.9572 139.64 17.8397C139.353 17.7169 139.012 17.6528 138.634 17.6528Z" fill="#3a3a3a"/>
</svg>
