<svg width="23" height="21" viewBox="0 0 23 21" xmlns="http://www.w3.org/2000/svg">
<path d="M16.6111 13.125H15.3333V9.1875H14.6944H13.9957C11.9113 9.1875 10.2222 10.9225 10.2222 13.0635C10.2222 14.6754 11.5 15.75 11.5 15.75C11.5 15.75 6.38889 14.1381 6.38889 9.84375C6.38889 6.58301 8.96441 3.9375 12.1389 3.9375H15.3333V0H16.6111L23 6.5625L16.6111 13.125ZM0 2.625H1.27778H3.83333H5.11111V5.25H3.83333H2.55556V18.375H15.3333V17.0625V15.75H17.8889V17.0625V19.6875V21H16.6111H1.27778H0V19.6875V3.9375V2.625Z"/>
</svg>
