<svg width="17" height="17" viewBox="0 0 17 17" fill="none" xmlns="http://www.w3.org/2000/svg">
<path d="M13.3571 7.28571C15.3683 7.28571 17 5.65402 17 3.64286C17 1.6317 15.3683 0 13.3571 0C11.346 0 9.71429 1.6317 9.71429 3.64286C9.71429 3.79464 9.72188 3.94643 9.74085 4.09442L6.17009 5.8779C5.51741 5.2442 4.62567 4.85714 3.64286 4.85714C1.6317 4.85714 0 6.48884 0 8.5C0 10.5112 1.6317 12.1429 3.64286 12.1429C4.62567 12.1429 5.51741 11.7558 6.17009 11.1221L9.74085 12.9056C9.72188 13.0536 9.71429 13.2016 9.71429 13.3571C9.71429 15.3683 11.346 17 13.3571 17C15.3683 17 17 15.3683 17 13.3571C17 11.346 15.3683 9.71429 13.3571 9.71429C12.3743 9.71429 11.4826 10.1013 10.8299 10.735L7.25915 8.95156C7.27813 8.80357 7.28571 8.65558 7.28571 8.5C7.28571 8.34442 7.27813 8.19643 7.25915 8.04844L10.8299 6.26496C11.4826 6.89866 12.3743 7.28571 13.3571 7.28571Z" />
</svg>
