<svg width="63" height="44" viewBox="0 0 63 44" fill="none" xmlns="http://www.w3.org/2000/svg">
<path d="M30.2506 3.35888L4.91246 12.5712L12.1352 15.1935C13.1405 14.5158 14.2337 13.956 15.3952 13.5141L30.9534 7.64095C31.7635 7.33649 32.6615 7.74898 32.9641 8.56415C33.2666 9.37932 32.8567 10.2829 32.0466 10.5873L16.4884 16.4605C16.342 16.5096 16.2053 16.5685 16.0687 16.6274L30.2506 21.7836C30.6508 21.9309 31.0705 21.9997 31.5 21.9997C31.9294 21.9997 32.3491 21.9211 32.7493 21.7836L58.0875 12.5712L32.7493 3.35888C32.3491 3.21156 31.9294 3.14281 31.5 3.14281C31.0705 3.14281 30.6508 3.22138 30.2506 3.35888ZM29.1868 24.7398L12.6525 18.7292C9.96839 21.0175 8.27983 24.3469 8.09438 27.9808C8.67025 29.2772 9.08995 30.6817 9.40228 32.0566C10.027 34.7673 10.4467 38.5289 9.60725 42.7324C9.51941 43.1547 9.27539 43.5181 8.91426 43.7538C8.55312 43.9895 8.1139 44.0582 7.70396 43.9502L1.45726 42.3788C0.949712 42.2511 0.539773 41.8779 0.364084 41.377C0.188396 40.8761 0.27624 40.3262 0.588575 39.9137C1.42798 38.7646 2.15025 37.4976 2.78468 36.2209C3.89737 33.962 4.95151 31.0745 4.95151 28.2853C4.95151 28.2263 4.95151 28.1674 4.96127 28.1085C5.09791 24.0818 6.71815 20.3399 9.36324 17.531L1.80863 14.7908C0.881389 14.4471 0.266479 13.5632 0.266479 12.5712C0.266479 11.5793 0.881389 10.6954 1.80863 10.3516L29.1868 0.402672C29.9286 0.137498 30.7094 0 31.5 0C32.2906 0 33.0714 0.137498 33.8132 0.402672L61.1913 10.3516C62.1186 10.6855 62.7335 11.5793 62.7335 12.5712C62.7335 13.5632 62.1186 14.4471 61.1913 14.7908L33.8132 24.7398C33.0714 25.005 32.2906 25.1425 31.5 25.1425C30.7094 25.1425 29.9286 25.005 29.1868 24.7398ZM17.279 23.7577L15.9223 36.761C15.9906 36.8396 16.098 36.9673 16.2834 37.1244C16.869 37.6351 17.8939 38.2539 19.397 38.8431C22.3642 40.0119 26.649 40.8565 31.5 40.8565C36.3509 40.8565 40.6358 40.0119 43.6127 38.8333C45.1158 38.244 46.1309 37.6253 46.7263 37.1146C46.9118 36.9575 47.0191 36.8396 47.0875 36.7512L45.721 23.7478L48.7467 22.6479L50.2401 36.928C50.2401 40.3949 41.8461 43.9993 31.5 43.9993C21.1539 43.9993 12.7599 40.3949 12.7599 36.928L14.2532 22.6479L17.279 23.7478V23.7577ZM47.1655 36.6334C47.1686 36.6313 47.171 36.6285 47.1725 36.6251C47.174 36.6218 47.1745 36.618 47.174 36.6144C47.1735 36.6108 47.172 36.6073 47.1697 36.6045C47.1674 36.6017 47.1643 36.5996 47.1609 36.5984C47.1574 36.5972 47.1537 36.5971 47.1501 36.5979C47.1466 36.5988 47.1433 36.6006 47.1408 36.6032C47.1382 36.6059 47.1364 36.6092 47.1356 36.6127C47.1348 36.6163 47.1351 36.6201 47.1363 36.6235C47.1332 36.6256 47.1308 36.6284 47.1293 36.6318C47.1278 36.6351 47.1273 36.6388 47.1278 36.6425C47.1283 36.6461 47.1298 36.6495 47.1321 36.6524C47.1344 36.6552 47.1375 36.6573 47.1409 36.6585C47.1444 36.6596 47.1481 36.6598 47.1517 36.659C47.1552 36.6581 47.1585 36.6563 47.161 36.6536C47.1636 36.651 47.1654 36.6477 47.1662 36.6441C47.167 36.6406 47.1668 36.6368 47.1655 36.6334ZM15.8344 36.6334C15.8344 36.636 15.8355 36.6385 15.8373 36.6403C15.8391 36.6421 15.8416 36.6432 15.8442 36.6432C15.8468 36.6432 15.8493 36.6421 15.8511 36.6403C15.8529 36.6385 15.854 36.636 15.854 36.6334C15.854 36.6307 15.8529 36.6282 15.8511 36.6264C15.8493 36.6246 15.8468 36.6235 15.8442 36.6235C15.8416 36.6235 15.8391 36.6246 15.8373 36.6264C15.8355 36.6282 15.8344 36.6307 15.8344 36.6334ZM6.806 40.4833C7.05001 38.4503 6.97192 36.5548 6.75719 34.9146C6.3863 35.8968 5.97636 36.8101 5.57618 37.6253C5.20528 38.3717 4.8051 39.1181 4.35612 39.8646L6.806 40.4833Z" fill="white"/>
</svg>
