<svg width="28" height="33" viewBox="0 0 28 33" fill="none" xmlns="http://www.w3.org/2000/svg">
<path d="M28 5.15625V8.25C28 11.0988 21.7312 13.4062 14 13.4062C6.26875 13.4062 0 11.0988 0 8.25V5.15625C0 2.30742 6.26875 0 14 0C21.7312 0 28 2.30742 28 5.15625ZM24.575 13.8381C25.875 13.3611 27.0688 12.7488 28 11.9947V18.5625C28 21.4113 21.7312 23.7188 14 23.7188C6.26875 23.7188 0 21.4113 0 18.5625V11.9947C0.93125 12.7553 2.125 13.3611 3.425 13.8381C6.23125 14.8693 9.96875 15.4688 14 15.4688C18.0312 15.4688 21.7688 14.8693 24.575 13.8381ZM0 22.3072C0.93125 23.0678 2.125 23.6736 3.425 24.1506C6.23125 25.1818 9.96875 25.7812 14 25.7812C18.0312 25.7812 21.7688 25.1818 24.575 24.1506C25.875 23.6736 27.0688 23.0613 28 22.3072V27.8438C28 30.6926 21.7312 33 14 33C6.26875 33 0 30.6926 0 27.8438V22.3072Z" />
</svg>
